Latin-Mizra-Medium.ufo
<glyph name="quotedbl" format="1">
  <advance width="295"/>
  <unicode hex="0022"/>
  <outline>
    <contour>
      <point x="255" y="315" type="line"/>
      <point x="255" y="406"/>
      <point x="256" y="472"/>
      <point x="267" y="549" type="curve"/>
      <point x="232" y="549"/>
      <point x="208" y="545"/>
      <point x="178" y="536" type="curve"/>
      <point x="178" y="374" type="line"/>
      <point x="197" y="356"/>
      <point x="216" y="338"/>
      <point x="234" y="315" type="curve"/>
    </contour>
    <contour>
      <point x="115" y="315" type="line"/>
      <point x="115" y="406"/>
      <point x="116" y="472"/>
      <point x="127" y="549" type="curve"/>
      <point x="92" y="549"/>
      <point x="68" y="545"/>
      <point x="38" y="536" type="curve"/>
      <point x="38" y="374" type="line"/>
      <point x="57" y="356"/>
      <point x="76" y="338"/>
      <point x="94" y="315" type="curve"/>
    </contour>
  </outline>
</glyph>
<glyph name="parenleft" format="1">
  <advance width="326"/>
  <unicode hex="0028"/>
  <outline>
    <contour>
      <point x="314" y="-104"/>
      <point x="316" y="-90"/>
      <point x="316" y="-77" type="curve" smooth="yes"/>
      <point x="316" y="-60"/>
      <point x="314" y="-44"/>
      <point x="311" y="-27" type="curve"/>
      <point x="270" y="-33"/>
      <point x="236" y="-36"/>
      <point x="207" y="-36" type="curve"/>
      <point x="175" y="-26"/>
      <point x="159" y="120"/>
      <point x="159" y="264" type="curve" smooth="yes"/>
      <point x="159" y="409"/>
      <point x="175" y="553"/>
      <point x="207" y="563" type="curve"/>
      <point x="236" y="563"/>
      <point x="270" y="560"/>
      <point x="311" y="554" type="curve"/>
      <point x="314" y="571"/>
      <point x="316" y="588"/>
      <point x="316" y="605" type="curve" smooth="yes"/>
      <point x="316" y="618"/>
      <point x="314" y="632"/>
      <point x="311" y="647" type="curve"/>
      <point x="136" y="647"/>
      <point x="47" y="506"/>
      <point x="47" y="264" type="curve" smooth="yes"/>
      <point x="47" y="23"/>
      <point x="136" y="-119"/>
      <point x="311" y="-119" type="curve"/>
    </contour>
  </outline>
</glyph>
<glyph name="hyphen" format="1">
  <advance width="420"/>
  <unicode hex="002D"/>
  <outline>
    <contour>
      <point x="92" y="145"/>
      <point x="155" y="154"/>
      <point x="216" y="154" type="curve" smooth="yes"/>
      <point x="264" y="154"/>
      <point x="314" y="153"/>
      <point x="368" y="149" type="curve"/>
      <point x="368" y="188"/>
      <point x="365" y="222"/>
      <point x="354" y="261" type="curve"/>
      <point x="328" y="251"/>
      <point x="264" y="242"/>
      <point x="205" y="242" type="curve" smooth="yes"/>
      <point x="155" y="242"/>
      <point x="107" y="243"/>
      <point x="52" y="247" type="curve"/>
      <point x="52" y="208"/>
      <point x="55" y="174"/>
      <point x="67" y="135" type="curve"/>
    </contour>
  </outline>
</glyph>
<glyph name="slash" format="1">
  <advance width="334"/>
  <unicode hex="002F"/>
  <outline>
    <contour>
      <point x="104" y="-87"/>
      <point x="119" y="-83"/>
      <point x="134" y="-78" type="curve"/>
      <point x="139" y="15"/>
      <point x="247" y="459"/>
      <point x="288" y="605" type="curve"/>
      <point x="272" y="610"/>
      <point x="258" y="614"/>
      <point x="246" y="614" type="curve" smooth="yes"/>
      <point x="231" y="614"/>
      <point x="216" y="610"/>
      <point x="201" y="605" type="curve"/>
      <point x="196" y="513"/>
      <point x="88" y="68"/>
      <point x="47" y="-78" type="curve"/>
      <point x="63" y="-83"/>
      <point x="76" y="-87"/>
      <point x="89" y="-87" type="curve" smooth="yes"/>
    </contour>
  </outline>
</glyph>
<glyph name="zero" format="1">
  <advance width="581"/>
  <unicode hex="0030"/>
  <outline>
    <contour>
      <point x="434" y="-11"/>
      <point x="547" y="108"/>
      <point x="547" y="278" type="curve" smooth="yes"/>
      <point x="547" y="431"/>
      <point x="455" y="533"/>
      <point x="317" y="533" type="curve" smooth="yes"/>
      <point x="150" y="533"/>
      <point x="33" y="416"/>
      <point x="33" y="250" type="curve" smooth="yes"/>
      <point x="33" y="93"/>
      <point x="129" y="-11"/>
      <point x="272" y="-11" type="curve" smooth="yes"/>
    </contour>
    <contour>
      <point x="199" y="73"/>
      <point x="140" y="153"/>
      <point x="140" y="275" type="curve" smooth="yes"/>
      <point x="140" y="390"/>
      <point x="209" y="475"/>
      <point x="304" y="475" type="curve"/>
      <point x="390" y="457"/>
      <point x="442" y="380"/>
      <point x="442" y="269" type="curve" smooth="yes"/>
      <point x="442" y="148"/>
      <point x="382" y="73"/>
      <point x="287" y="73" type="curve" smooth="yes"/>
    </contour>
  </outline>
</glyph>
<glyph name="three" format="1">
  <advance width="489"/>
  <unicode hex="0033"/>
  <outline>
    <contour>
      <point x="371" y="-11"/>
      <point x="451" y="47"/>
      <point x="451" y="154" type="curve" smooth="yes"/>
      <point x="451" y="238"/>
      <point x="383" y="301"/>
      <point x="285" y="306" type="curve"/>
      <point x="364" y="368" type="line" smooth="yes"/>
      <point x="418" y="409"/>
      <point x="437" y="438"/>
      <point x="437" y="477" type="curve" smooth="yes"/>
      <point x="437" y="506"/>
      <point x="423" y="532"/>
      <point x="400" y="546" type="curve"/>
      <point x="363" y="524"/>
      <point x="312" y="516"/>
      <point x="209" y="516" type="curve" smooth="yes"/>
      <point x="140" y="516"/>
      <point x="86" y="520"/>
      <point x="60" y="527" type="curve"/>
      <point x="60" y="491"/>
      <point x="69" y="445"/>
      <point x="82" y="412" type="curve"/>
      <point x="105" y="425"/>
      <point x="132" y="430"/>
      <point x="183" y="430" type="curve" smooth="yes"/>
      <point x="282" y="430"/>
      <point x="343" y="429"/>
      <point x="361" y="428" type="curve"/>
      <point x="179" y="286" type="line" smooth="yes"/>
      <point x="162" y="272"/>
      <point x="148" y="257"/>
      <point x="141" y="241" type="curve"/>
      <point x="141" y="232"/>
      <point x="164" y="217"/>
      <point x="179" y="217" type="curve"/>
      <point x="194" y="245"/>
      <point x="227" y="263"/>
      <point x="261" y="263" type="curve"/>
      <point x="312" y="245"/>
      <point x="342" y="205"/>
      <point x="342" y="154" type="curve" smooth="yes"/>
      <point x="342" y="89"/>
      <point x="294" y="50"/>
      <point x="213" y="50" type="curve" smooth="yes"/>
      <point x="148" y="50"/>
      <point x="88" y="73"/>
      <point x="55" y="111" type="curve"/>
      <point x="43" y="78"/>
      <point x="38" y="57"/>
      <point x="38" y="35" type="curve"/>
      <point x="89" y="5"/>
      <point x="152" y="-11"/>
      <point x="221" y="-11" type="curve" smooth="yes"/>
    </contour>
  </outline>
</glyph>
<glyph name="four" format="1">
  <advance width="487"/>
  <unicode hex="0034"/>
  <outline>
    <contour>
      <point x="364" y="-6"/>
      <point x="385" y="-4"/>
      <point x="404" y="0" type="curve"/>
      <point x="395" y="19"/>
      <point x="390" y="57"/>
      <point x="389" y="116" type="curve"/>
      <point x="437" y="110" type="line"/>
      <point x="450" y="140"/>
      <point x="459" y="182"/>
      <point x="459" y="215" type="curve"/>
      <point x="442" y="208"/>
      <point x="419" y="203"/>
      <point x="389" y="200" type="curve"/>
      <point x="391" y="254"/>
      <point x="395" y="310"/>
      <point x="399" y="342" type="curve"/>
      <point x="375" y="346"/>
      <point x="353" y="348"/>
      <point x="334" y="348" type="curve" smooth="yes"/>
      <point x="314" y="348"/>
      <point x="294" y="346"/>
      <point x="274" y="342" type="curve"/>
      <point x="284" y="321"/>
      <point x="289" y="276"/>
      <point x="290" y="197" type="curve"/>
      <point x="227" y="197"/>
      <point x="161" y="198"/>
      <point x="107" y="199" type="curve"/>
      <point x="211" y="365"/>
      <point x="306" y="470"/>
      <point x="358" y="515" type="curve"/>
      <point x="322" y="539"/>
      <point x="284" y="546"/>
      <point x="235" y="546" type="curve"/>
      <point x="187" y="471"/>
      <point x="76" y="285"/>
      <point x="46" y="234" type="curve" smooth="yes"/>
      <point x="27" y="200"/>
      <point x="18" y="176"/>
      <point x="18" y="146" type="curve" smooth="yes"/>
      <point x="18" y="128"/>
      <point x="26" y="111"/>
      <point x="42" y="101" type="curve"/>
      <point x="81" y="117"/>
      <point x="136" y="120"/>
      <point x="232" y="120" type="curve" smooth="yes"/>
      <point x="288" y="120" type="line"/>
      <point x="287" y="74"/>
      <point x="283" y="29"/>
      <point x="279" y="0" type="curve"/>
      <point x="303" y="-4"/>
      <point x="325" y="-6"/>
      <point x="344" y="-6" type="curve" smooth="yes"/>
    </contour>
  </outline>
</glyph>
<glyph name="five" format="1">
  <advance width="479"/>
  <unicode hex="0035"/>
  <outline>
    <contour>
      <point x="363" y="-11"/>
      <point x="441" y="49"/>
      <point x="441" y="159" type="curve" smooth="yes"/>
      <point x="441" y="256"/>
      <point x="368" y="326"/>
      <point x="266" y="326" type="curve" smooth="yes"/>
      <point x="215" y="326"/>
      <point x="168" y="312"/>
      <point x="126" y="285" type="curve"/>
      <point x="137" y="427" type="line"/>
      <point x="212" y="429"/>
      <point x="245" y="430"/>
      <point x="291" y="430" type="curve" smooth="yes"/>
      <point x="348" y="430"/>
      <point x="376" y="425"/>
      <point x="398" y="412" type="curve"/>
      <point x="411" y="445"/>
      <point x="420" y="491"/>
      <point x="420" y="527" type="curve"/>
      <point x="389" y="520"/>
      <point x="319" y="516"/>
      <point x="238" y="516" type="curve" smooth="yes"/>
      <point x="162" y="516"/>
      <point x="122" y="519"/>
      <point x="94" y="527" type="curve"/>
      <point x="75" y="241" type="line"/>
      <point x="75" y="236"/>
      <point x="98" y="227"/>
      <point x="122" y="222" type="curve"/>
      <point x="171" y="254"/>
      <point x="220" y="273"/>
      <point x="253" y="273" type="curve"/>
      <point x="305" y="249"/>
      <point x="332" y="210"/>
      <point x="332" y="159" type="curve" smooth="yes"/>
      <point x="332" y="90"/>
      <point x="286" y="50"/>
      <point x="207" y="50" type="curve" smooth="yes"/>
      <point x="145" y="50"/>
      <point x="87" y="73"/>
      <point x="55" y="111" type="curve"/>
      <point x="43" y="85"/>
      <point x="38" y="64"/>
      <point x="38" y="35" type="curve"/>
      <point x="88" y="5"/>
      <point x="150" y="-11"/>
      <point x="216" y="-11" type="curve" smooth="yes"/>
    </contour>
  </outline>
</glyph>
<glyph name="six" format="1">
  <advance width="505"/>
  <unicode hex="0036"/>
  <outline>
    <contour>
      <point x="377" y="-9"/>
      <point x="467" y="64"/>
      <point x="467" y="168" type="curve" smooth="yes"/>
      <point x="467" y="269"/>
      <point x="395" y="336"/>
      <point x="288" y="336" type="curve" smooth="yes"/>
      <point x="239" y="336"/>
      <point x="193" y="321"/>
      <point x="150" y="293" type="curve"/>
      <point x="162" y="389"/>
      <point x="202" y="452"/>
      <point x="264" y="472" type="curve"/>
      <point x="295" y="472"/>
      <point x="355" y="441"/>
      <point x="401" y="401" type="curve"/>
      <point x="419" y="425"/>
      <point x="435" y="476"/>
      <point x="435" y="509" type="curve"/>
      <point x="401" y="525"/>
      <point x="359" y="533"/>
      <point x="311" y="533" type="curve" smooth="yes"/>
      <point x="132" y="533"/>
      <point x="37" y="426"/>
      <point x="37" y="223" type="curve" smooth="yes"/>
      <point x="37" y="84"/>
      <point x="122" y="-9"/>
      <point x="248" y="-9" type="curve" smooth="yes"/>
    </contour>
    <contour>
      <point x="186" y="50"/>
      <point x="146" y="113"/>
      <point x="146" y="221" type="curve" smooth="yes"/>
      <point x="146" y="230" type="line"/>
      <point x="172" y="251"/>
      <point x="204" y="266"/>
      <point x="238" y="276" type="curve"/>
      <point x="312" y="276"/>
      <point x="358" y="235"/>
      <point x="358" y="171" type="curve" smooth="yes"/>
      <point x="358" y="98"/>
      <point x="318" y="50"/>
      <point x="256" y="50" type="curve" smooth="yes"/>
    </contour>
  </outline>
</glyph>
<glyph name="eight" format="1">
  <advance width="520"/>
  <unicode hex="0038"/>
  <outline>
    <contour>
      <point x="380" y="-11"/>
      <point x="481" y="51"/>
      <point x="481" y="146" type="curve" smooth="yes"/>
      <point x="481" y="221"/>
      <point x="429" y="257"/>
      <point x="366" y="281" type="curve"/>
      <point x="428" y="310"/>
      <point x="464" y="353"/>
      <point x="464" y="402" type="curve" smooth="yes"/>
      <point x="464" y="481"/>
      <point x="390" y="533"/>
      <point x="281" y="533" type="curve" smooth="yes"/>
      <point x="148" y="533"/>
      <point x="55" y="472"/>
      <point x="55" y="386" type="curve" smooth="yes"/>
      <point x="55" y="316"/>
      <point x="97" y="278"/>
      <point x="150" y="252" type="curve"/>
      <point x="80" y="222"/>
      <point x="38" y="174"/>
      <point x="38" y="120" type="curve" smooth="yes"/>
      <point x="38" y="42"/>
      <point x="121" y="-11"/>
      <point x="243" y="-11" type="curve" smooth="yes"/>
    </contour>
    <contour>
      <point x="191" y="46"/>
      <point x="147" y="80"/>
      <point x="147" y="132" type="curve" smooth="yes"/>
      <point x="147" y="171"/>
      <point x="170" y="205"/>
      <point x="210" y="227" type="curve"/>
      <point x="291" y="200"/>
      <point x="373" y="183"/>
      <point x="373" y="126" type="curve" smooth="yes"/>
      <point x="373" y="77"/>
      <point x="328" y="46"/>
      <point x="257" y="46" type="curve" smooth="yes"/>
    </contour>
    <contour>
      <point x="229" y="327"/>
      <point x="158" y="347"/>
      <point x="158" y="405" type="curve" smooth="yes"/>
      <point x="158" y="454"/>
      <point x="205" y="483"/>
      <point x="270" y="483" type="curve"/>
      <point x="327" y="472"/>
      <point x="362" y="440"/>
      <point x="362" y="394" type="curve" smooth="yes"/>
      <point x="362" y="356"/>
      <point x="341" y="325"/>
      <point x="303" y="303" type="curve"/>
    </contour>
  </outline>
</glyph>
<glyph name="nine" format="1">
  <advance width="495"/>
  <unicode hex="0039"/>
  <outline>
    <contour>
      <point x="369" y="-11"/>
      <point x="457" y="91"/>
      <point x="457" y="283" type="curve" smooth="yes"/>
      <point x="457" y="433"/>
      <point x="369" y="533"/>
      <point x="239" y="533" type="curve" smooth="yes"/>
      <point x="120" y="533"/>
      <point x="37" y="455"/>
      <point x="37" y="344" type="curve" smooth="yes"/>
      <point x="37" y="239"/>
      <point x="105" y="168"/>
      <point x="206" y="168" type="curve" smooth="yes"/>
      <point x="255" y="168"/>
      <point x="303" y="184"/>
      <point x="346" y="213" type="curve"/>
      <point x="337" y="119"/>
      <point x="292" y="51"/>
      <point x="199" y="51" type="curve" smooth="yes"/>
      <point x="140" y="51"/>
      <point x="85" y="74"/>
      <point x="55" y="111" type="curve"/>
      <point x="43" y="85"/>
      <point x="38" y="64"/>
      <point x="38" y="35" type="curve"/>
      <point x="84" y="5"/>
      <point x="143" y="-11"/>
      <point x="204" y="-11" type="curve" smooth="yes"/>
    </contour>
    <contour>
      <point x="188" y="228"/>
      <point x="146" y="276"/>
      <point x="146" y="351" type="curve" smooth="yes"/>
      <point x="146" y="418"/>
      <point x="183" y="462"/>
      <point x="240" y="462" type="curve" smooth="yes"/>
      <point x="304" y="462"/>
      <point x="344" y="394"/>
      <point x="348" y="274" type="curve"/>
      <point x="321" y="253"/>
      <point x="290" y="238"/>
      <point x="256" y="228" type="curve"/>
    </contour>
  </outline>
</glyph>
<glyph name="greater" format="1">
  <advance width="533"/>
  <unicode hex="003E"/>
  <outline>
    <contour>
      <point x="201" y="126"/>
      <point x="361" y="191"/>
      <point x="463" y="226" type="curve"/>
      <point x="465" y="239"/>
      <point x="466" y="253"/>
      <point x="466" y="266" type="curve" smooth="yes"/>
      <point x="466" y="279"/>
      <point x="465" y="292"/>
      <point x="463" y="306" type="curve"/>
      <point x="361" y="341"/>
      <point x="201" y="406"/>
      <point x="102" y="451" type="curve"/>
      <point x="85" y="427"/>
      <point x="77" y="405"/>
      <point x="71" y="375" type="curve"/>
      <point x="360" y="266" type="line"/>
      <point x="71" y="156" type="line"/>
      <point x="76" y="130"/>
      <point x="85" y="103"/>
      <point x="102" y="80" type="curve"/>
    </contour>
  </outline>
</glyph>
<glyph name="question" format="1">
  <advance width="383"/>
  <unicode hex="003F"/>
  <outline>
    <contour>
      <point x="249" y="222"/>
      <point x="345" y="287"/>
      <point x="345" y="389" type="curve" smooth="yes"/>
      <point x="345" y="492"/>
      <point x="285" y="547"/>
      <point x="171" y="547" type="curve" smooth="yes"/>
      <point x="114" y="547"/>
      <point x="64" y="531"/>
      <point x="19" y="501" type="curve"/>
      <point x="19" y="472"/>
      <point x="23" y="451"/>
      <point x="33" y="425" type="curve"/>
      <point x="58" y="463"/>
      <point x="101" y="486"/>
      <point x="147" y="486" type="curve" smooth="yes"/>
      <point x="203" y="486"/>
      <point x="236" y="451"/>
      <point x="236" y="389" type="curve" smooth="yes"/>
      <point x="236" y="331"/>
      <point x="201" y="284"/>
      <point x="135" y="258" type="curve"/>
      <point x="153" y="211" type="line"/>
    </contour>
    <contour>
      <point x="193" y="9"/>
      <point x="217" y="34"/>
      <point x="241" y="63" type="curve"/>
      <point x="212" y="86"/>
      <point x="187" y="111"/>
      <point x="164" y="140" type="curve"/>
      <point x="135" y="116"/>
      <point x="110" y="92"/>
      <point x="86" y="63" type="curve"/>
      <point x="115" y="39"/>
      <point x="140" y="14"/>
      <point x="164" y="-15" type="curve"/>
    </contour>
  </outline>
</glyph>
<glyph name="A" format="1">
  <advance width="518"/>
  <unicode hex="0041"/>
  <outline>
    <contour>
      <point x="473" y="-5"/>
      <point x="493" y="-3"/>
      <point x="514" y="2" type="curve"/>
      <point x="472" y="75"/>
      <point x="348" y="411"/>
      <point x="309" y="529" type="curve"/>
      <point x="277" y="535"/>
      <point x="246" y="535"/>
      <point x="210" y="529" type="curve"/>
      <point x="171" y="411"/>
      <point x="46" y="75"/>
      <point x="5" y="2" type="curve"/>
      <point x="20" y="-2"/>
      <point x="34" y="-4"/>
      <point x="49" y="-4" type="curve" smooth="yes"/>
      <point x="59" y="-4"/>
      <point x="72" y="-2"/>
      <point x="85" y="2" type="curve"/>
      <point x="95" y="32"/>
      <point x="111" y="77"/>
      <point x="130" y="128" type="curve"/>
      <point x="152" y="131"/>
      <point x="185" y="132"/>
      <point x="229" y="132" type="curve" smooth="yes"/>
      <point x="267" y="132"/>
      <point x="310" y="131"/>
      <point x="345" y="129" type="curve"/>
      <point x="364" y="77"/>
      <point x="380" y="32"/>
      <point x="390" y="2" type="curve"/>
      <point x="414" y="-3"/>
      <point x="435" y="-5"/>
      <point x="452" y="-5" type="curve" smooth="yes"/>
    </contour>
    <contour>
      <point x="231" y="195"/>
      <point x="189" y="196"/>
      <point x="155" y="198" type="curve"/>
      <point x="183" y="275"/>
      <point x="214" y="355"/>
      <point x="237" y="409" type="curve"/>
      <point x="258" y="360"/>
      <point x="290" y="277"/>
      <point x="320" y="196" type="curve"/>
      <point x="305" y="195"/>
      <point x="286" y="195"/>
      <point x="266" y="195" type="curve" smooth="yes"/>
    </contour>
    <contour>
      <point x="513" y="2" type="move" name="ogonek"/>
    </contour>
    <contour>
      <point x="259" y="0" type="move" name="bottom"/>
    </contour>
    <contour>
      <point x="259" y="527" type="move" name="top"/>
    </contour>
  </outline>
</glyph>
<glyph name="D" format="1">
  <advance width="578"/>
  <unicode hex="0044"/>
  <outline>
    <contour>
      <point x="417" y="-6"/>
      <point x="539" y="105"/>
      <point x="539" y="266" type="curve" smooth="yes"/>
      <point x="539" y="437"/>
      <point x="439" y="532"/>
      <point x="259" y="532" type="curve" smooth="yes"/>
      <point x="183" y="532"/>
      <point x="101" y="521"/>
      <point x="57" y="505" type="curve"/>
      <point x="68" y="478"/>
      <point x="73" y="408"/>
      <point x="73" y="300" type="curve" smooth="yes"/>
      <point x="73" y="199"/>
      <point x="68" y="73"/>
      <point x="62" y="10" type="curve"/>
      <point x="110" y="0"/>
      <point x="180" y="-6"/>
      <point x="239" y="-6" type="curve" smooth="yes"/>
    </contour>
    <contour>
      <point x="261" y="51"/>
      <point x="220" y="59"/>
      <point x="177" y="71" type="curve"/>
      <point x="174" y="110"/>
      <point x="172" y="162"/>
      <point x="172" y="227" type="curve" smooth="yes"/>
      <point x="172" y="301"/>
      <point x="175" y="388"/>
      <point x="179" y="452" type="curve"/>
      <point x="198" y="458"/>
      <point x="218" y="461"/>
      <point x="239" y="461" type="curve" smooth="yes"/>
      <point x="360" y="461"/>
      <point x="430" y="398"/>
      <point x="430" y="248" type="curve" smooth="yes"/>
      <point x="430" y="157"/>
      <point x="366" y="64"/>
      <point x="287" y="51" type="curve"/>
    </contour>
    <contour>
      <point x="177" y="264" type="move" name="center"/>
    </contour>
    <contour>
      <point x="289" y="0" type="move" name="bottom"/>
    </contour>
    <contour>
      <point x="289" y="527" type="move" name="top"/>
    </contour>
  </outline>
</glyph>
<glyph name="E" format="1">
  <advance width="474"/>
  <unicode hex="0045"/>
  <outline>
    <contour>
      <point x="101" y="2"/>
      <point x="150" y="4"/>
      <point x="228" y="4" type="curve" smooth="yes"/>
      <point x="297" y="4"/>
      <point x="368" y="2"/>
      <point x="415" y="-3" type="curve"/>
      <point x="428" y="15"/>
      <point x="436" y="71"/>
      <point x="436" y="108" type="curve"/>
      <point x="397" y="91"/>
      <point x="331" y="81"/>
      <point x="273" y="81" type="curve" smooth="yes"/>
      <point x="239" y="81"/>
      <point x="203" y="85"/>
      <point x="176" y="90" type="curve"/>
      <point x="173" y="123"/>
      <point x="172" y="167"/>
      <point x="172" y="231" type="curve"/>
      <point x="229" y="233"/>
      <point x="310" y="229"/>
      <point x="380" y="224" type="curve"/>
      <point x="382" y="238"/>
      <point x="384" y="254"/>
      <point x="384" y="266" type="curve" smooth="yes"/>
      <point x="384" y="280"/>
      <point x="382" y="295"/>
      <point x="380" y="307" type="curve"/>
      <point x="343" y="300"/>
      <point x="317" y="296"/>
      <point x="247" y="296" type="curve" smooth="yes"/>
      <point x="223" y="296"/>
      <point x="197" y="297"/>
      <point x="173" y="298" type="curve"/>
      <point x="174" y="345"/>
      <point x="176" y="394"/>
      <point x="178" y="436" type="curve"/>
      <point x="204" y="440"/>
      <point x="237" y="443"/>
      <point x="268" y="443" type="curve" smooth="yes"/>
      <point x="319" y="443"/>
      <point x="377" y="434"/>
      <point x="411" y="416" type="curve"/>
      <point x="424" y="434"/>
      <point x="432" y="490"/>
      <point x="432" y="527" type="curve"/>
      <point x="379" y="522"/>
      <point x="300" y="520"/>
      <point x="223" y="520" type="curve" smooth="yes"/>
      <point x="159" y="520"/>
      <point x="96" y="522"/>
      <point x="57" y="527" type="curve"/>
      <point x="69" y="481"/>
      <point x="73" y="420"/>
      <point x="73" y="300" type="curve" smooth="yes"/>
      <point x="73" y="180"/>
      <point x="71" y="111"/>
      <point x="62" y="-3" type="curve"/>
    </contour>
    <contour>
      <point x="416" y="17" type="move" name="ogonek"/>
    </contour>
    <contour>
      <point x="249" y="527" type="move" name="top"/>
    </contour>
    <contour>
      <point x="20" y="527" type="move" name="topleft"/>
    </contour>
    <contour>
      <point x="238" y="0" type="move" name="bottom"/>
    </contour>
  </outline>
</glyph>
<glyph name="H" format="1">
  <advance width="557"/>
  <unicode hex="0048"/>
  <outline>
    <contour>
      <point x="147" y="-6"/>
      <point x="168" y="-4"/>
      <point x="188" y="0" type="curve"/>
      <point x="178" y="29"/>
      <point x="172" y="104"/>
      <point x="172" y="229" type="curve"/>
      <point x="195" y="230"/>
      <point x="225" y="231"/>
      <point x="260" y="231" type="curve" smooth="yes"/>
      <point x="299" y="231"/>
      <point x="344" y="230"/>
      <point x="384" y="229" type="curve"/>
      <point x="383" y="142"/>
      <point x="379" y="51"/>
      <point x="374" y="0" type="curve"/>
      <point x="398" y="-4"/>
      <point x="420" y="-6"/>
      <point x="439" y="-6" type="curve" smooth="yes"/>
      <point x="459" y="-6"/>
      <point x="480" y="-4"/>
      <point x="499" y="0" type="curve"/>
      <point x="489" y="30"/>
      <point x="483" y="108"/>
      <point x="483" y="229" type="curve" smooth="yes"/>
      <point x="483" y="331"/>
      <point x="488" y="460"/>
      <point x="494" y="527" type="curve"/>
      <point x="470" y="531"/>
      <point x="450" y="533"/>
      <point x="431" y="533" type="curve" smooth="yes"/>
      <point x="410" y="533"/>
      <point x="389" y="531"/>
      <point x="369" y="527" type="curve"/>
      <point x="379" y="498"/>
      <point x="385" y="423"/>
      <point x="385" y="298" type="curve"/>
      <point x="363" y="297"/>
      <point x="338" y="296"/>
      <point x="308" y="296" type="curve" smooth="yes"/>
      <point x="264" y="296"/>
      <point x="214" y="297"/>
      <point x="173" y="299" type="curve"/>
      <point x="174" y="385"/>
      <point x="178" y="475"/>
      <point x="183" y="527" type="curve"/>
      <point x="159" y="531"/>
      <point x="138" y="533"/>
      <point x="119" y="533" type="curve" smooth="yes"/>
      <point x="99" y="533"/>
      <point x="77" y="531"/>
      <point x="57" y="527" type="curve"/>
      <point x="68" y="497"/>
      <point x="73" y="419"/>
      <point x="73" y="298" type="curve" smooth="yes"/>
      <point x="73" y="196"/>
      <point x="68" y="67"/>
      <point x="62" y="0" type="curve"/>
      <point x="87" y="-4"/>
      <point x="108" y="-6"/>
      <point x="127" y="-6" type="curve" smooth="yes"/>
    </contour>
    <contour>
      <point x="279" y="414" type="move" name="center"/>
    </contour>
    <contour>
      <point x="279" y="527" type="move" name="top"/>
    </contour>
    <contour>
      <point x="19" y="527" type="move" name="topleft"/>
    </contour>
    <contour>
      <point x="279" y="0" type="move" name="bottom"/>
    </contour>
  </outline>
</glyph>
<glyph name="L" format="1">
  <advance width="417"/>
  <unicode hex="004C"/>
  <outline>
    <contour>
      <point x="102" y="2"/>
      <point x="152" y="4"/>
      <point x="228" y="4" type="curve" smooth="yes"/>
      <point x="289" y="4"/>
      <point x="347" y="1"/>
      <point x="386" y="-3" type="curve"/>
      <point x="397" y="13"/>
      <point x="407" y="65"/>
      <point x="407" y="106" type="curve"/>
      <point x="375" y="90"/>
      <point x="322" y="79"/>
      <point x="273" y="79" type="curve" smooth="yes"/>
      <point x="241" y="79"/>
      <point x="204" y="82"/>
      <point x="176" y="88" type="curve"/>
      <point x="173" y="119"/>
      <point x="172" y="161"/>
      <point x="172" y="227" type="curve" smooth="yes"/>
      <point x="172" y="326"/>
      <point x="177" y="458"/>
      <point x="183" y="527" type="curve"/>
      <point x="158" y="531"/>
      <point x="137" y="533"/>
      <point x="118" y="533" type="curve" smooth="yes"/>
      <point x="98" y="533"/>
      <point x="77" y="531"/>
      <point x="57" y="527" type="curve"/>
      <point x="68" y="498"/>
      <point x="73" y="423"/>
      <point x="73" y="298" type="curve" smooth="yes"/>
      <point x="73" y="183"/>
      <point x="71" y="134"/>
      <point x="62" y="-3" type="curve"/>
    </contour>
    <contour>
      <point x="135" y="264" type="move" name="center"/>
    </contour>
    <contour>
      <point x="121" y="527" type="move" name="top"/>
    </contour>
    <contour>
      <point x="298" y="407" type="move" name="topright"/>
    </contour>
    <contour>
      <point x="210" y="0" type="move" name="bottom"/>
    </contour>
  </outline>
</glyph>
<glyph name="M" format="1">
  <advance width="713"/>
  <unicode hex="004D"/>
  <outline>
    <contour>
      <point x="118" y="-6"/>
      <point x="133" y="-4"/>
      <point x="146" y="0" type="curve"/>
      <point x="139" y="30"/>
      <point x="135" y="107"/>
      <point x="135" y="227" type="curve" smooth="yes"/>
      <point x="135" y="273"/>
      <point x="136" y="324"/>
      <point x="137" y="372" type="curve"/>
      <point x="199" y="244"/>
      <point x="275" y="76"/>
      <point x="307" y="0" type="curve"/>
      <point x="315" y="-3"/>
      <point x="322" y="-5"/>
      <point x="330" y="-5" type="curve" smooth="yes"/>
      <point x="338" y="-5"/>
      <point x="345" y="-3"/>
      <point x="354" y="0" type="curve"/>
      <point x="389" y="82"/>
      <point x="474" y="271"/>
      <point x="539" y="402" type="curve"/>
      <point x="540" y="372"/>
      <point x="540" y="338"/>
      <point x="540" y="300" type="curve" smooth="yes"/>
      <point x="540" y="196"/>
      <point x="535" y="66"/>
      <point x="529" y="0" type="curve"/>
      <point x="553" y="-4"/>
      <point x="574" y="-6"/>
      <point x="593" y="-6" type="curve" smooth="yes"/>
      <point x="613" y="-6"/>
      <point x="635" y="-4"/>
      <point x="655" y="0" type="curve"/>
      <point x="644" y="30"/>
      <point x="639" y="107"/>
      <point x="639" y="227" type="curve" smooth="yes"/>
      <point x="639" y="331"/>
      <point x="644" y="461"/>
      <point x="650" y="527" type="curve"/>
      <point x="626" y="531"/>
      <point x="604" y="533"/>
      <point x="585" y="533" type="curve" smooth="yes"/>
      <point x="561" y="533"/>
      <point x="539" y="531"/>
      <point x="524" y="527" type="curve"/>
      <point x="491" y="450"/>
      <point x="409" y="266"/>
      <point x="352" y="151" type="curve"/>
      <point x="299" y="257"/>
      <point x="213" y="449"/>
      <point x="180" y="527" type="curve"/>
      <point x="156" y="531"/>
      <point x="134" y="533"/>
      <point x="116" y="533" type="curve" smooth="yes"/>
      <point x="96" y="533"/>
      <point x="76" y="531"/>
      <point x="57" y="527" type="curve"/>
      <point x="66" y="485"/>
      <point x="69" y="420"/>
      <point x="69" y="298" type="curve" smooth="yes"/>
      <point x="69" y="195"/>
      <point x="66" y="66"/>
      <point x="61" y="0" type="curve"/>
      <point x="77" y="-4"/>
      <point x="92" y="-6"/>
      <point x="104" y="-6" type="curve" smooth="yes"/>
    </contour>
  </outline>
</glyph>
<glyph name="O" format="1">
  <advance width="611"/>
  <unicode hex="004F"/>
  <outline>
    <contour>
      <point x="452" y="-13"/>
      <point x="572" y="105"/>
      <point x="572" y="272" type="curve" smooth="yes"/>
      <point x="572" y="430"/>
      <point x="473" y="535"/>
      <point x="324" y="535" type="curve" smooth="yes"/>
      <point x="156" y="535"/>
      <point x="38" y="415"/>
      <point x="38" y="244" type="curve" smooth="yes"/>
      <point x="38" y="90"/>
      <point x="135" y="-13"/>
      <point x="279" y="-13" type="curve" smooth="yes"/>
    </contour>
    <contour>
      <point x="209" y="45"/>
      <point x="147" y="124"/>
      <point x="147" y="243" type="curve" smooth="yes"/>
      <point x="147" y="358"/>
      <point x="219" y="441"/>
      <point x="319" y="441" type="curve"/>
      <point x="409" y="423"/>
      <point x="464" y="345"/>
      <point x="464" y="237" type="curve" smooth="yes"/>
      <point x="464" y="119"/>
      <point x="401" y="45"/>
      <point x="302" y="45" type="curve" smooth="yes"/>
    </contour>
    <contour>
      <point x="305" y="264" type="move" name="center"/>
    </contour>
    <contour>
      <point x="550" y="10" type="move" name="ogonek"/>
    </contour>
    <contour>
      <point x="305" y="527" type="move" name="top"/>
    </contour>
    <contour>
      <point x="591" y="527" type="move" name="topright"/>
    </contour>
    <contour>
      <point x="20" y="527" type="move" name="topleft"/>
    </contour>
    <contour>
      <point x="305" y="0" type="move" name="bottom"/>
    </contour>
  </outline>
</glyph>
<glyph name="P" format="1">
  <advance width="487"/>
  <unicode hex="0050"/>
  <outline>
    <contour>
      <point x="147" y="-6"/>
      <point x="168" y="-4"/>
      <point x="188" y="0" type="curve"/>
      <point x="179" y="25"/>
      <point x="174" y="81"/>
      <point x="173" y="166" type="curve"/>
      <point x="193" y="162"/>
      <point x="216" y="160"/>
      <point x="239" y="160" type="curve" smooth="yes"/>
      <point x="371" y="160"/>
      <point x="462" y="240"/>
      <point x="462" y="356" type="curve" smooth="yes"/>
      <point x="462" y="469"/>
      <point x="386" y="532"/>
      <point x="249" y="532" type="curve" smooth="yes"/>
      <point x="177" y="532"/>
      <point x="99" y="521"/>
      <point x="57" y="505" type="curve"/>
      <point x="68" y="478"/>
      <point x="73" y="407"/>
      <point x="73" y="298" type="curve" smooth="yes"/>
      <point x="73" y="195"/>
      <point x="68" y="66"/>
      <point x="62" y="0" type="curve"/>
      <point x="87" y="-4"/>
      <point x="108" y="-6"/>
      <point x="127" y="-6" type="curve" smooth="yes"/>
    </contour>
    <contour>
      <point x="252" y="217"/>
      <point x="213" y="226"/>
      <point x="172" y="239" type="curve"/>
      <point x="172" y="311"/>
      <point x="175" y="393"/>
      <point x="179" y="454" type="curve"/>
      <point x="195" y="459"/>
      <point x="211" y="461"/>
      <point x="229" y="461" type="curve" smooth="yes"/>
      <point x="308" y="461"/>
      <point x="353" y="427"/>
      <point x="353" y="348" type="curve" smooth="yes"/>
      <point x="353" y="288"/>
      <point x="319" y="237"/>
      <point x="277" y="217" type="curve"/>
    </contour>
    <contour>
      <point x="246" y="527" type="move" name="top"/>
    </contour>
    <contour>
      <point x="246" y="0" type="move" name="bottom"/>
    </contour>
  </outline>
</glyph>
<glyph name="U" format="1">
  <advance width="531"/>
  <unicode hex="0055"/>
  <outline>
    <contour>
      <point x="430" y="-5"/>
      <point x="475" y="98"/>
      <point x="475" y="205" type="curve" smooth="yes"/>
      <point x="475" y="305"/>
      <point x="479" y="453"/>
      <point x="483" y="527" type="curve"/>
      <point x="466" y="531"/>
      <point x="452" y="533"/>
      <point x="439" y="533" type="curve" smooth="yes"/>
      <point x="426" y="533"/>
      <point x="411" y="531"/>
      <point x="398" y="527" type="curve"/>
      <point x="404" y="483"/>
      <point x="406" y="319"/>
      <point x="406" y="190" type="curve" smooth="yes"/>
      <point x="406" y="127"/>
      <point x="380" y="70"/>
      <point x="282" y="70" type="curve" smooth="yes"/>
      <point x="210" y="70"/>
      <point x="167" y="110"/>
      <point x="167" y="203" type="curve" smooth="yes"/>
      <point x="167" y="315"/>
      <point x="170" y="456"/>
      <point x="173" y="527" type="curve"/>
      <point x="149" y="531"/>
      <point x="128" y="533"/>
      <point x="109" y="533" type="curve" smooth="yes"/>
      <point x="89" y="533"/>
      <point x="67" y="531"/>
      <point x="47" y="527" type="curve"/>
      <point x="58" y="484"/>
      <point x="63" y="323"/>
      <point x="63" y="200" type="curve" smooth="yes"/>
      <point x="63" y="69"/>
      <point x="137" y="-5"/>
      <point x="262" y="-5" type="curve" smooth="yes"/>
    </contour>
    <contour>
      <point x="361" y="11" type="move" name="ogonek"/>
    </contour>
    <contour>
      <point x="286" y="527" type="move" name="top"/>
    </contour>
    <contour>
      <point x="511" y="527" type="move" name="topright"/>
    </contour>
    <contour>
      <point x="266" y="0" type="move" name="bottom"/>
    </contour>
  </outline>
</glyph>
<glyph name="V" format="1">
  <advance width="501"/>
  <unicode hex="0056"/>
  <outline>
    <contour>
      <point x="333" y="27" type="line"/>
      <point x="374" y="168"/>
      <point x="452" y="409"/>
      <point x="496" y="533" type="curve"/>
      <point x="458" y="533"/>
      <point x="430" y="530"/>
      <point x="399" y="522" type="curve"/>
      <point x="411" y="488"/>
      <point x="376" y="354"/>
      <point x="284" y="78" type="curve"/>
      <point x="265" y="110"/>
      <point x="242" y="166"/>
      <point x="210" y="260" type="curve" smooth="yes"/>
      <point x="181" y="350"/>
      <point x="151" y="471"/>
      <point x="141" y="533" type="curve"/>
      <point x="87" y="533"/>
      <point x="46" y="526"/>
      <point x="5" y="512" type="curve"/>
      <point x="129" y="270"/>
      <point x="146" y="-9"/>
      <point x="256" y="-9" type="curve"/>
    </contour>
    <contour>
      <point x="251" y="527" type="move" name="top"/>
    </contour>
    <contour>
      <point x="251" y="0" type="move" name="bottom"/>
    </contour>
  </outline>
</glyph>
<glyph name="bracketleft" format="1">
  <advance width="354"/>
  <unicode hex="005B"/>
  <outline>
    <contour>
      <point x="321" y="-108"/>
      <point x="323" y="-91"/>
      <point x="323" y="-76" type="curve" smooth="yes"/>
      <point x="323" y="-60"/>
      <point x="321" y="-43"/>
      <point x="318" y="-25" type="curve"/>
      <point x="286" y="-28"/>
      <point x="235" y="-31"/>
      <point x="181" y="-32" type="curve"/>
      <point x="173" y="32"/>
      <point x="170" y="125"/>
      <point x="170" y="291" type="curve" smooth="yes"/>
      <point x="170" y="355"/>
      <point x="173" y="476"/>
      <point x="177" y="560" type="curve"/>
      <point x="229" y="559"/>
      <point x="279" y="556"/>
      <point x="310" y="553" type="curve"/>
      <point x="313" y="571"/>
      <point x="315" y="588"/>
      <point x="315" y="604" type="curve" smooth="yes"/>
      <point x="315" y="619"/>
      <point x="313" y="636"/>
      <point x="310" y="652" type="curve"/>
      <point x="289" y="645"/>
      <point x="236" y="639"/>
      <point x="151" y="639" type="curve" smooth="yes"/>
      <point x="118" y="639"/>
      <point x="86" y="640"/>
      <point x="57" y="643" type="curve"/>
      <point x="68" y="583"/>
      <point x="73" y="497"/>
      <point x="73" y="291" type="curve" smooth="yes"/>
      <point x="73" y="192"/>
      <point x="68" y="-28"/>
      <point x="62" y="-117" type="curve"/>
      <point x="99" y="-113"/>
      <point x="130" y="-111"/>
      <point x="159" y="-111" type="curve" smooth="yes"/>
      <point x="244" y="-111"/>
      <point x="297" y="-117"/>
      <point x="318" y="-124" type="curve"/>
    </contour>
  </outline>
</glyph>
<glyph name="asciicircum" format="1">
  <advance width="374"/>
  <unicode hex="005E"/>
  <outline>
    <contour>
      <point x="187" y="501" type="line"/>
      <point x="301" y="357" type="line"/>
      <point x="325" y="373"/>
      <point x="343" y="390"/>
      <point x="364" y="417" type="curve"/>
      <point x="306" y="475"/>
      <point x="260" y="523"/>
      <point x="201" y="598" type="curve"/>
      <point x="173" y="598" type="line"/>
      <point x="114" y="523"/>
      <point x="68" y="475"/>
      <point x="10" y="417" type="curve"/>
      <point x="32" y="390"/>
      <point x="49" y="373"/>
      <point x="73" y="357" type="curve"/>
    </contour>
  </outline>
</glyph>
<glyph name="underscore" format="1">
  <advance width="506"/>
  <unicode hex="005F"/>
  <outline>
    <contour>
      <point x="99" y="-98"/>
      <point x="183" y="-89"/>
      <point x="261" y="-89" type="curve" smooth="yes"/>
      <point x="321" y="-89"/>
      <point x="385" y="-90"/>
      <point x="454" y="-94" type="curve"/>
      <point x="454" y="-54"/>
      <point x="451" y="-20"/>
      <point x="440" y="19" type="curve"/>
      <point x="406" y="9"/>
      <point x="323" y="0"/>
      <point x="246" y="0" type="curve" smooth="yes"/>
      <point x="183" y="0"/>
      <point x="122" y="1"/>
      <point x="52" y="5" type="curve"/>
      <point x="52" y="-34"/>
      <point x="55" y="-68"/>
      <point x="67" y="-108" type="curve"/>
    </contour>
  </outline>
</glyph>
<glyph name="e" format="1">
  <advance width="462"/>
  <unicode hex="0065"/>
  <outline>
    <contour>
      <point x="285" y="-11"/>
      <point x="362" y="25"/>
      <point x="404" y="78" type="curve"/>
      <point x="394" y="111" type="line"/>
      <point x="358" y="86"/>
      <point x="308" y="73"/>
      <point x="252" y="73" type="curve" smooth="yes"/>
      <point x="186" y="73"/>
      <point x="152" y="104"/>
      <point x="143" y="174" type="curve"/>
      <point x="242" y="176"/>
      <point x="349" y="190"/>
      <point x="419" y="207" type="curve"/>
      <point x="419" y="346"/>
      <point x="361" y="418"/>
      <point x="251" y="418" type="curve" smooth="yes"/>
      <point x="125" y="418"/>
      <point x="37" y="325"/>
      <point x="37" y="191" type="curve" smooth="yes"/>
      <point x="37" y="61"/>
      <point x="100" y="-11"/>
      <point x="211" y="-11" type="curve" smooth="yes"/>
    </contour>
    <contour>
      <point x="141" y="283"/>
      <point x="166" y="342"/>
      <point x="205" y="366" type="curve"/>
      <point x="262" y="366"/>
      <point x="303" y="317"/>
      <point x="304" y="252" type="curve"/>
      <point x="267" y="234"/>
      <point x="201" y="219"/>
      <point x="141" y="213" type="curve"/>
    </contour>
    <contour>
      <point x="313" y="12" type="move" name="ogonek"/>
    </contour>
    <contour>
      <point x="224" y="0" type="move" name="bottom"/>
    </contour>
    <contour>
      <point x="234" y="407" type="move" name="top"/>
    </contour>
  </outline>
</glyph>
<glyph name="g" format="1">
  <advance width="445"/>
  <unicode hex="0067"/>
  <outline>
    <contour>
      <point x="325" y="-180"/>
      <point x="417" y="-119"/>
      <point x="417" y="-38" type="curve" smooth="yes"/>
      <point x="417" y="22"/>
      <point x="376" y="57"/>
      <point x="299" y="63" type="curve" smooth="yes"/>
      <point x="111" y="73" type="line"/>
      <point x="111" y="101"/>
      <point x="147" y="119"/>
      <point x="204" y="119" type="curve" smooth="yes"/>
      <point x="313" y="119"/>
      <point x="390" y="184"/>
      <point x="390" y="277" type="curve" smooth="yes"/>
      <point x="390" y="304"/>
      <point x="383" y="328"/>
      <point x="372" y="348" type="curve"/>
      <point x="400" y="350"/>
      <point x="425" y="357"/>
      <point x="444" y="368" type="curve"/>
      <point x="444" y="389"/>
      <point x="432" y="428"/>
      <point x="418" y="454" type="curve"/>
      <point x="386" y="425"/>
      <point x="350" y="404"/>
      <point x="323" y="396" type="curve"/>
      <point x="298" y="410"/>
      <point x="268" y="418"/>
      <point x="232" y="418" type="curve" smooth="yes"/>
      <point x="126" y="418"/>
      <point x="52" y="353"/>
      <point x="52" y="260" type="curve" smooth="yes"/>
      <point x="52" y="205"/>
      <point x="77" y="162"/>
      <point x="121" y="139" type="curve"/>
      <point x="75" y="120"/>
      <point x="46" y="88"/>
      <point x="46" y="49" type="curve" smooth="yes"/>
      <point x="46" y="23"/>
      <point x="60" y="3"/>
      <point x="83" y="-7" type="curve"/>
      <point x="51" y="-43"/>
      <point x="32" y="-91"/>
      <point x="32" y="-137" type="curve"/>
      <point x="71" y="-164"/>
      <point x="130" y="-180"/>
      <point x="202" y="-180" type="curve" smooth="yes"/>
    </contour>
    <contour>
      <point x="177" y="-111"/>
      <point x="138" y="-95"/>
      <point x="113" y="-63" type="curve"/>
      <point x="117" y="-47"/>
      <point x="123" y="-30"/>
      <point x="130" y="-15" type="curve"/>
      <point x="277" y="-23" type="line" smooth="yes"/>
      <point x="323" y="-25"/>
      <point x="340" y="-34"/>
      <point x="340" y="-59" type="curve" smooth="yes"/>
      <point x="340" y="-90"/>
      <point x="295" y="-111"/>
      <point x="228" y="-111" type="curve" smooth="yes"/>
    </contour>
    <contour>
      <point x="173" y="167"/>
      <point x="142" y="199"/>
      <point x="142" y="248" type="curve" smooth="yes"/>
      <point x="142" y="299"/>
      <point x="178" y="336"/>
      <point x="228" y="336" type="curve"/>
      <point x="273" y="324"/>
      <point x="301" y="290"/>
      <point x="301" y="246" type="curve" smooth="yes"/>
      <point x="301" y="196"/>
      <point x="270" y="167"/>
      <point x="220" y="167" type="curve" smooth="yes"/>
    </contour>
    <contour>
      <point x="230" y="407" type="move" name="top"/>
    </contour>
    <contour>
      <point x="226" y="0" type="move" name="bottom"/>
    </contour>
  </outline>
</glyph>
<glyph name="h" format="1">
  <advance width="490"/>
  <unicode hex="0068"/>
  <outline>
    <contour>
      <point x="144" y="-6"/>
      <point x="165" y="-4"/>
      <point x="185" y="0" type="curve"/>
      <point x="171" y="30"/>
      <point x="164" y="106"/>
      <point x="164" y="225" type="curve" smooth="yes"/>
      <point x="164" y="249"/>
      <point x="165" y="277"/>
      <point x="166" y="299" type="curve"/>
      <point x="190" y="316"/>
      <point x="216" y="323"/>
      <point x="249" y="323" type="curve" smooth="yes"/>
      <point x="296" y="323"/>
      <point x="316" y="301"/>
      <point x="316" y="248" type="curve" smooth="yes"/>
      <point x="316" y="170"/>
      <point x="313" y="74"/>
      <point x="309" y="0" type="curve"/>
      <point x="332" y="-4"/>
      <point x="353" y="-6"/>
      <point x="371" y="-6" type="curve" smooth="yes"/>
      <point x="392" y="-6"/>
      <point x="415" y="-4"/>
      <point x="434" y="0" type="curve"/>
      <point x="421" y="29"/>
      <point x="414" y="82"/>
      <point x="414" y="150" type="curve" smooth="yes"/>
      <point x="414" y="181"/>
      <point x="418" y="251"/>
      <point x="418" y="280" type="curve" smooth="yes"/>
      <point x="418" y="370"/>
      <point x="381" y="418"/>
      <point x="301" y="418" type="curve" smooth="yes"/>
      <point x="251" y="418"/>
      <point x="202" y="393"/>
      <point x="166" y="354" type="curve"/>
      <point x="169" y="429"/>
      <point x="174" y="502"/>
      <point x="180" y="547" type="curve"/>
      <point x="131" y="547"/>
      <point x="94" y="541"/>
      <point x="56" y="527" type="curve"/>
      <point x="62" y="468"/>
      <point x="66" y="367"/>
      <point x="66" y="255" type="curve" smooth="yes"/>
      <point x="66" y="171"/>
      <point x="63" y="73"/>
      <point x="59" y="0" type="curve"/>
      <point x="83" y="-4"/>
      <point x="104" y="-6"/>
      <point x="123" y="-6" type="curve" smooth="yes"/>
    </contour>
    <contour>
      <point x="128" y="470" type="move" name="center"/>
    </contour>
    <contour>
      <point x="245" y="0" type="move" name="bottom"/>
    </contour>
    <contour>
      <point x="245" y="407" type="move" name="top"/>
    </contour>
  </outline>
</glyph>
<glyph name="k" format="1">
  <advance width="449"/>
  <unicode hex="006B"/>
  <outline>
    <contour>
      <point x="145" y="-6"/>
      <point x="165" y="-4"/>
      <point x="185" y="0" type="curve"/>
      <point x="175" y="22"/>
      <point x="168" y="69"/>
      <point x="165" y="139" type="curve"/>
      <point x="210" y="189" type="line"/>
      <point x="269" y="100"/>
      <point x="314" y="28"/>
      <point x="331" y="-6" type="curve"/>
      <point x="382" y="-6"/>
      <point x="424" y="-1"/>
      <point x="462" y="15" type="curve"/>
      <point x="414" y="51"/>
      <point x="345" y="156"/>
      <point x="280" y="265" type="curve"/>
      <point x="331" y="320"/>
      <point x="384" y="375"/>
      <point x="430" y="418" type="curve"/>
      <point x="395" y="418"/>
      <point x="364" y="416"/>
      <point x="322" y="407" type="curve"/>
      <point x="322" y="384"/>
      <point x="294" y="348"/>
      <point x="164" y="209" type="curve"/>
      <point x="164" y="227" type="line" smooth="yes"/>
      <point x="164" y="338"/>
      <point x="171" y="477"/>
      <point x="180" y="547" type="curve"/>
      <point x="131" y="547"/>
      <point x="94" y="541"/>
      <point x="56" y="527" type="curve"/>
      <point x="62" y="468"/>
      <point x="66" y="367"/>
      <point x="66" y="255" type="curve" smooth="yes"/>
      <point x="66" y="171"/>
      <point x="63" y="73"/>
      <point x="59" y="0" type="curve"/>
      <point x="84" y="-4"/>
      <point x="106" y="-6"/>
      <point x="125" y="-6" type="curve" smooth="yes"/>
    </contour>
    <contour>
      <point x="226" y="407" type="move" name="top"/>
    </contour>
    <contour>
      <point x="226" y="0" type="move" name="bottom"/>
    </contour>
  </outline>
</glyph>
<glyph name="m" format="1">
  <advance width="759"/>
  <unicode hex="006D"/>
  <outline>
    <contour>
      <point x="174" y="-6"/>
      <point x="195" y="-4"/>
      <point x="214" y="0" type="curve"/>
      <point x="201" y="29"/>
      <point x="194" y="82"/>
      <point x="194" y="150" type="curve" smooth="yes"/>
      <point x="194" y="211"/>
      <point x="196" y="262"/>
      <point x="198" y="302" type="curve"/>
      <point x="219" y="317"/>
      <point x="243" y="323"/>
      <point x="274" y="323" type="curve" smooth="yes"/>
      <point x="321" y="323"/>
      <point x="340" y="301"/>
      <point x="340" y="248" type="curve" smooth="yes"/>
      <point x="340" y="161"/>
      <point x="337" y="65"/>
      <point x="333" y="0" type="curve"/>
      <point x="356" y="-4"/>
      <point x="377" y="-6"/>
      <point x="396" y="-6" type="curve" smooth="yes"/>
      <point x="416" y="-6"/>
      <point x="440" y="-4"/>
      <point x="459" y="0" type="curve"/>
      <point x="446" y="29"/>
      <point x="439" y="82"/>
      <point x="439" y="150" type="curve" smooth="yes"/>
      <point x="439" y="184"/>
      <point x="442" y="255"/>
      <point x="442" y="302" type="curve"/>
      <point x="463" y="317"/>
      <point x="488" y="323"/>
      <point x="519" y="323" type="curve" smooth="yes"/>
      <point x="566" y="323"/>
      <point x="585" y="301"/>
      <point x="585" y="248" type="curve" smooth="yes"/>
      <point x="585" y="161"/>
      <point x="582" y="65"/>
      <point x="578" y="0" type="curve"/>
      <point x="601" y="-4"/>
      <point x="622" y="-6"/>
      <point x="641" y="-6" type="curve" smooth="yes"/>
      <point x="661" y="-6"/>
      <point x="685" y="-4"/>
      <point x="704" y="0" type="curve"/>
      <point x="691" y="29"/>
      <point x="684" y="82"/>
      <point x="684" y="150" type="curve" smooth="yes"/>
      <point x="684" y="181"/>
      <point x="688" y="251"/>
      <point x="688" y="280" type="curve" smooth="yes"/>
      <point x="688" y="362"/>
      <point x="657" y="418"/>
      <point x="569" y="418" type="curve" smooth="yes"/>
      <point x="518" y="418"/>
      <point x="468" y="391"/>
      <point x="434" y="346" type="curve"/>
      <point x="419" y="391"/>
      <point x="386" y="418"/>
      <point x="324" y="418" type="curve" smooth="yes"/>
      <point x="277" y="418"/>
      <point x="230" y="394"/>
      <point x="196" y="355" type="curve"/>
      <point x="190" y="392"/>
      <point x="172" y="414"/>
      <point x="133" y="414" type="curve" smooth="yes"/>
      <point x="114" y="414"/>
      <point x="82" y="405"/>
      <point x="56" y="378" type="curve"/>
      <point x="87" y="344"/>
      <point x="95" y="321"/>
      <point x="95" y="213" type="curve" smooth="yes"/>
      <point x="95" y="139"/>
      <point x="92" y="57"/>
      <point x="88" y="0" type="curve"/>
      <point x="111" y="-4"/>
      <point x="135" y="-6"/>
      <point x="154" y="-6" type="curve" smooth="yes"/>
    </contour>
    <contour>
      <point x="381" y="407" type="move" name="top"/>
    </contour>
    <contour>
      <point x="381" y="0" type="move" name="bottom"/>
    </contour>
  </outline>
</glyph>
<glyph name="n" format="1">
  <advance width="519"/>
  <unicode hex="006E"/>
  <outline>
    <contour>
      <point x="174" y="-6"/>
      <point x="195" y="-4"/>
      <point x="214" y="0" type="curve"/>
      <point x="201" y="29"/>
      <point x="194" y="82"/>
      <point x="194" y="150" type="curve" smooth="yes"/>
      <point x="194" y="211"/>
      <point x="196" y="262"/>
      <point x="198" y="302" type="curve"/>
      <point x="220" y="317"/>
      <point x="246" y="323"/>
      <point x="279" y="323" type="curve" smooth="yes"/>
      <point x="326" y="323"/>
      <point x="345" y="301"/>
      <point x="345" y="248" type="curve" smooth="yes"/>
      <point x="345" y="161"/>
      <point x="342" y="65"/>
      <point x="338" y="0" type="curve"/>
      <point x="361" y="-4"/>
      <point x="382" y="-6"/>
      <point x="401" y="-6" type="curve" smooth="yes"/>
      <point x="421" y="-6"/>
      <point x="445" y="-4"/>
      <point x="464" y="0" type="curve"/>
      <point x="451" y="29"/>
      <point x="444" y="82"/>
      <point x="444" y="150" type="curve" smooth="yes"/>
      <point x="444" y="181"/>
      <point x="448" y="251"/>
      <point x="448" y="280" type="curve" smooth="yes"/>
      <point x="448" y="362"/>
      <point x="418" y="418"/>
      <point x="331" y="418" type="curve" smooth="yes"/>
      <point x="281" y="418"/>
      <point x="232" y="394"/>
      <point x="197" y="354" type="curve"/>
      <point x="191" y="392"/>
      <point x="172" y="414"/>
      <point x="133" y="414" type="curve" smooth="yes"/>
      <point x="114" y="414"/>
      <point x="82" y="405"/>
      <point x="56" y="378" type="curve"/>
      <point x="87" y="344"/>
      <point x="95" y="321"/>
      <point x="95" y="213" type="curve" smooth="yes"/>
      <point x="95" y="139"/>
      <point x="92" y="57"/>
      <point x="88" y="0" type="curve"/>
      <point x="111" y="-4"/>
      <point x="135" y="-6"/>
      <point x="154" y="-6" type="curve" smooth="yes"/>
    </contour>
    <contour>
      <point x="263" y="407" type="move" name="top"/>
    </contour>
    <contour>
      <point x="261" y="0" type="move" name="bottom"/>
    </contour>
  </outline>
</glyph>
<glyph name="o" format="1">
  <advance width="495"/>
  <unicode hex="006F"/>
  <outline>
    <contour>
      <point x="361" y="-11"/>
      <point x="457" y="82"/>
      <point x="457" y="215" type="curve" smooth="yes"/>
      <point x="457" y="337"/>
      <point x="378" y="418"/>
      <point x="261" y="418" type="curve" smooth="yes"/>
      <point x="129" y="418"/>
      <point x="37" y="325"/>
      <point x="37" y="192" type="curve" smooth="yes"/>
      <point x="37" y="70"/>
      <point x="113" y="-11"/>
      <point x="226" y="-11" type="curve" smooth="yes"/>
    </contour>
    <contour>
      <point x="182" y="37"/>
      <point x="136" y="96"/>
      <point x="136" y="194" type="curve" smooth="yes"/>
      <point x="136" y="279"/>
      <point x="183" y="332"/>
      <point x="257" y="332" type="curve"/>
      <point x="320" y="312"/>
      <point x="358" y="252"/>
      <point x="358" y="176" type="curve" smooth="yes"/>
      <point x="358" y="89"/>
      <point x="317" y="37"/>
      <point x="245" y="37" type="curve" smooth="yes"/>
    </contour>
    <contour>
      <point x="248" y="204" type="move" name="center"/>
    </contour>
    <contour>
      <point x="446" y="10" type="move" name="ogonek"/>
    </contour>
    <contour>
      <point x="248" y="407" type="move" name="top"/>
    </contour>
    <contour>
      <point x="475" y="407" type="move" name="topright"/>
    </contour>
    <contour>
      <point x="248" y="0" type="move" name="bottom"/>
    </contour>
  </outline>
</glyph>
<glyph name="q" format="1">
  <advance width="509"/>
  <unicode hex="0071"/>
  <outline>
    <contour>
      <point x="366" y="-180"/>
      <point x="403" y="-176"/>
      <point x="441" y="-165" type="curve"/>
      <point x="434" y="-95"/>
      <point x="429" y="54"/>
      <point x="429" y="213" type="curve" smooth="yes"/>
      <point x="429" y="321"/>
      <point x="437" y="344"/>
      <point x="468" y="378" type="curve"/>
      <point x="443" y="405"/>
      <point x="411" y="414"/>
      <point x="393" y="414" type="curve" smooth="yes"/>
      <point x="363" y="414"/>
      <point x="346" y="400"/>
      <point x="337" y="375" type="curve"/>
      <point x="300" y="403"/>
      <point x="259" y="418"/>
      <point x="213" y="418" type="curve" smooth="yes"/>
      <point x="100" y="418"/>
      <point x="42" y="343"/>
      <point x="42" y="198" type="curve" smooth="yes"/>
      <point x="42" y="60"/>
      <point x="99" y="-12"/>
      <point x="208" y="-12" type="curve" smooth="yes"/>
      <point x="253" y="-12"/>
      <point x="300" y="10"/>
      <point x="336" y="45" type="curve"/>
      <point x="334" y="-59"/>
      <point x="328" y="-131"/>
      <point x="317" y="-180" type="curve"/>
    </contour>
    <contour>
      <point x="180" y="53"/>
      <point x="146" y="108"/>
      <point x="146" y="191" type="curve" smooth="yes"/>
      <point x="146" y="281"/>
      <point x="182" y="328"/>
      <point x="250" y="328" type="curve" smooth="yes"/>
      <point x="280" y="328"/>
      <point x="309" y="321"/>
      <point x="332" y="306" type="curve"/>
      <point x="333" y="257"/>
      <point x="337" y="191"/>
      <point x="337" y="112" type="curve" smooth="yes"/>
      <point x="337" y="93" type="line"/>
      <point x="307" y="67"/>
      <point x="270" y="48"/>
      <point x="237" y="43" type="curve"/>
    </contour>
    <contour>
      <point x="254" y="407" type="move" name="top"/>
    </contour>
    <contour>
      <point x="254" y="0" type="move" name="bottom"/>
    </contour>
  </outline>
</glyph>
<glyph name="r" format="1">
  <advance width="342"/>
  <unicode hex="0072"/>
  <outline>
    <contour>
      <point x="173" y="-6"/>
      <point x="195" y="-4"/>
      <point x="214" y="0" type="curve"/>
      <point x="201" y="29"/>
      <point x="194" y="82"/>
      <point x="194" y="150" type="curve" smooth="yes"/>
      <point x="194" y="203"/>
      <point x="196" y="248"/>
      <point x="197" y="284" type="curve"/>
      <point x="225" y="302"/>
      <point x="278" y="317"/>
      <point x="336" y="308" type="curve"/>
      <point x="336" y="347"/>
      <point x="328" y="398"/>
      <point x="318" y="423" type="curve"/>
      <point x="267" y="409"/>
      <point x="230" y="381"/>
      <point x="198" y="340" type="curve"/>
      <point x="195" y="387"/>
      <point x="176" y="414"/>
      <point x="131" y="414" type="curve" smooth="yes"/>
      <point x="113" y="414"/>
      <point x="81" y="405"/>
      <point x="56" y="378" type="curve"/>
      <point x="87" y="344"/>
      <point x="95" y="321"/>
      <point x="95" y="213" type="curve" smooth="yes"/>
      <point x="95" y="139"/>
      <point x="92" y="57"/>
      <point x="88" y="0" type="curve"/>
      <point x="112" y="-4"/>
      <point x="133" y="-6"/>
      <point x="152" y="-6" type="curve" smooth="yes"/>
    </contour>
    <contour>
      <point x="195" y="407" type="move" name="top"/>
    </contour>
    <contour>
      <point x="147" y="0" type="move" name="bottom"/>
    </contour>
  </outline>
</glyph>
<glyph name="u" format="1">
  <advance width="493"/>
  <unicode hex="0075"/>
  <outline>
    <contour>
      <point x="240" y="-11"/>
      <point x="290" y="12"/>
      <point x="325" y="49" type="curve"/>
      <point x="331" y="23"/>
      <point x="344" y="3"/>
      <point x="364" y="-11" type="curve"/>
      <point x="397" y="-7"/>
      <point x="431" y="8"/>
      <point x="457" y="29" type="curve"/>
      <point x="426" y="63"/>
      <point x="418" y="85"/>
      <point x="418" y="137" type="curve" smooth="yes"/>
      <point x="418" y="175"/>
      <point x="424" y="325"/>
      <point x="430" y="417" type="curve"/>
      <point x="381" y="417"/>
      <point x="344" y="411"/>
      <point x="306" y="397" type="curve"/>
      <point x="319" y="368"/>
      <point x="325" y="324"/>
      <point x="325" y="257" type="curve" smooth="yes"/>
      <point x="325" y="227"/>
      <point x="321" y="161"/>
      <point x="321" y="95" type="curve"/>
      <point x="297" y="81"/>
      <point x="271" y="74"/>
      <point x="238" y="74" type="curve" smooth="yes"/>
      <point x="193" y="74"/>
      <point x="174" y="95"/>
      <point x="174" y="147" type="curve" smooth="yes"/>
      <point x="174" y="257"/>
      <point x="176" y="358"/>
      <point x="180" y="417" type="curve"/>
      <point x="131" y="417"/>
      <point x="94" y="411"/>
      <point x="56" y="397" type="curve"/>
      <point x="69" y="368"/>
      <point x="75" y="324"/>
      <point x="75" y="257" type="curve" smooth="yes"/>
      <point x="75" y="226"/>
      <point x="71" y="156"/>
      <point x="71" y="127" type="curve" smooth="yes"/>
      <point x="71" y="35"/>
      <point x="111" y="-11"/>
      <point x="190" y="-11" type="curve" smooth="yes"/>
    </contour>
    <contour>
      <point x="408" y="0" type="move" name="ogonek"/>
    </contour>
    <contour>
      <point x="253" y="407" type="move" name="top"/>
    </contour>
    <contour>
      <point x="501" y="407" type="move" name="topright"/>
    </contour>
    <contour>
      <point x="270" y="0" type="move" name="bottom"/>
    </contour>
  </outline>
</glyph>
<glyph name="v" format="1">
  <advance width="425"/>
  <unicode hex="0076"/>
  <outline>
    <contour>
      <point x="295" y="27" type="line"/>
      <point x="326" y="140"/>
      <point x="375" y="304"/>
      <point x="420" y="413" type="curve"/>
      <point x="388" y="413"/>
      <point x="358" y="411"/>
      <point x="323" y="402" type="curve"/>
      <point x="338" y="368"/>
      <point x="324" y="314"/>
      <point x="247" y="69" type="curve"/>
      <point x="208" y="136"/>
      <point x="145" y="343"/>
      <point x="133" y="413" type="curve"/>
      <point x="86" y="413"/>
      <point x="45" y="408"/>
      <point x="5" y="392" type="curve"/>
      <point x="110" y="262"/>
      <point x="107" y="-9"/>
      <point x="220" y="-9" type="curve"/>
    </contour>
    <contour>
      <point x="233" y="407" type="move" name="top"/>
    </contour>
    <contour>
      <point x="233" y="0" type="move" name="bottom"/>
    </contour>
  </outline>
</glyph>
<glyph name="x" format="1">
  <advance width="445"/>
  <unicode hex="0078"/>
  <outline>
    <contour>
      <point x="39" y="-6"/>
      <point x="72" y="-5"/>
      <point x="113" y="0" type="curve"/>
      <point x="117" y="18"/>
      <point x="131" y="44"/>
      <point x="207" y="147" type="curve"/>
      <point x="246" y="91"/>
      <point x="282" y="35"/>
      <point x="306" y="-6" type="curve"/>
      <point x="359" y="-6"/>
      <point x="401" y="-1"/>
      <point x="441" y="15" type="curve"/>
      <point x="410" y="42"/>
      <point x="341" y="131"/>
      <point x="275" y="224" type="curve"/>
      <point x="322" y="285"/>
      <point x="384" y="360"/>
      <point x="431" y="413" type="curve"/>
      <point x="397" y="413"/>
      <point x="364" y="411"/>
      <point x="323" y="402" type="curve"/>
      <point x="319" y="385"/>
      <point x="307" y="362"/>
      <point x="241" y="272" type="curve"/>
      <point x="205" y="324"/>
      <point x="172" y="374"/>
      <point x="150" y="413" type="curve"/>
      <point x="97" y="413"/>
      <point x="55" y="408"/>
      <point x="15" y="392" type="curve"/>
      <point x="45" y="365"/>
      <point x="109" y="284"/>
      <point x="172" y="196" type="curve"/>
      <point x="125" y="134"/>
      <point x="58" y="51"/>
      <point x="5" y="-6" type="curve"/>
    </contour>
    <contour>
      <point x="224" y="407" type="move" name="top"/>
    </contour>
    <contour>
      <point x="224" y="0" type="move" name="bottom"/>
    </contour>
  </outline>
</glyph>
<glyph name="y" format="1">
  <advance width="491"/>
  <unicode hex="0079"/>
  <outline>
    <contour>
      <point x="340" y="-180"/>
      <point x="431" y="-124"/>
      <point x="431" y="0" type="curve" smooth="yes"/>
      <point x="431" y="19"/>
      <point x="427" y="83"/>
      <point x="427" y="167" type="curve" smooth="yes"/>
      <point x="427" y="279"/>
      <point x="429" y="359"/>
      <point x="434" y="417" type="curve"/>
      <point x="385" y="417"/>
      <point x="348" y="411"/>
      <point x="310" y="397" type="curve"/>
      <point x="322" y="372"/>
      <point x="329" y="320"/>
      <point x="329" y="257" type="curve" smooth="yes"/>
      <point x="329" y="236"/>
      <point x="331" y="201"/>
      <point x="332" y="119" type="curve"/>
      <point x="307" y="101"/>
      <point x="279" y="94"/>
      <point x="244" y="94" type="curve" smooth="yes"/>
      <point x="197" y="94"/>
      <point x="178" y="116"/>
      <point x="178" y="169" type="curve" smooth="yes"/>
      <point x="178" y="280"/>
      <point x="180" y="367"/>
      <point x="184" y="417" type="curve"/>
      <point x="138" y="417"/>
      <point x="94" y="410"/>
      <point x="60" y="397" type="curve"/>
      <point x="73" y="369"/>
      <point x="79" y="325"/>
      <point x="79" y="259" type="curve" smooth="yes"/>
      <point x="79" y="233"/>
      <point x="75" y="168"/>
      <point x="75" y="145" type="curve" smooth="yes"/>
      <point x="75" y="85"/>
      <point x="91" y="44"/>
      <point x="126" y="24" type="curve"/>
      <point x="76" y="-23"/>
      <point x="46" y="-82"/>
      <point x="46" y="-135" type="curve"/>
      <point x="85" y="-163"/>
      <point x="144" y="-180"/>
      <point x="217" y="-180" type="curve" smooth="yes"/>
    </contour>
    <contour>
      <point x="185" y="-120"/>
      <point x="149" y="-104"/>
      <point x="125" y="-80" type="curve"/>
      <point x="131" y="-50"/>
      <point x="147" y="-19"/>
      <point x="168" y="9" type="curve"/>
      <point x="231" y="2"/>
      <point x="290" y="24"/>
      <point x="332" y="72" type="curve"/>
      <point x="332" y="20" type="line" smooth="yes"/>
      <point x="332" y="-84"/>
      <point x="290" y="-120"/>
      <point x="224" y="-120" type="curve" smooth="yes"/>
    </contour>
    <contour>
      <point x="243" y="407" type="move" name="top"/>
    </contour>
    <contour>
      <point x="243" y="0" type="move" name="bottom"/>
    </contour>
  </outline>
</glyph>
<glyph name="z" format="1">
  <advance width="421"/>
  <unicode hex="007A"/>
  <outline>
    <contour>
      <point x="376" y="14"/>
      <point x="384" y="72"/>
      <point x="384" y="107" type="curve"/>
      <point x="350" y="90"/>
      <point x="295" y="81"/>
      <point x="246" y="81" type="curve" smooth="yes"/>
      <point x="217" y="81"/>
      <point x="184" y="83"/>
      <point x="159" y="86" type="curve"/>
      <point x="232" y="182"/>
      <point x="355" y="309"/>
      <point x="371" y="340" type="curve"/>
      <point x="375" y="348"/>
      <point x="377" y="359"/>
      <point x="377" y="371" type="curve" smooth="yes"/>
      <point x="377" y="386"/>
      <point x="370" y="410"/>
      <point x="346" y="429" type="curve"/>
      <point x="314" y="405"/>
      <point x="296" y="399"/>
      <point x="204" y="399" type="curve" smooth="yes"/>
      <point x="150" y="399"/>
      <point x="80" y="403"/>
      <point x="37" y="410" type="curve"/>
      <point x="37" y="375"/>
      <point x="46" y="328"/>
      <point x="59" y="295" type="curve"/>
      <point x="80" y="307"/>
      <point x="108" y="313"/>
      <point x="157" y="313" type="curve" smooth="yes"/>
      <point x="210" y="313"/>
      <point x="254" y="311"/>
      <point x="286" y="310" type="curve"/>
      <point x="186" y="187"/>
      <point x="93" y="82"/>
      <point x="37" y="27" type="curve"/>
      <point x="37" y="-3" type="line"/>
      <point x="111" y="2"/>
      <point x="318" y="2"/>
      <point x="364" y="-8" type="curve"/>
    </contour>
    <contour>
      <point x="208" y="407" type="move" name="top"/>
    </contour>
    <contour>
      <point x="208" y="0" type="move" name="bottom"/>
    </contour>
  </outline>
</glyph>
<glyph name="bar" format="1">
  <advance width="346"/>
  <unicode hex="007C"/>
  <outline>
    <contour>
      <point x="202" y="-111"/>
      <point x="226" y="-109"/>
      <point x="248" y="-103" type="curve"/>
      <point x="237" y="-36"/>
      <point x="232" y="54"/>
      <point x="232" y="291" type="curve" smooth="yes"/>
      <point x="232" y="376"/>
      <point x="237" y="564"/>
      <point x="243" y="630" type="curve"/>
      <point x="216" y="636"/>
      <point x="193" y="639"/>
      <point x="172" y="639" type="curve" smooth="yes"/>
      <point x="147" y="639"/>
      <point x="120" y="636"/>
      <point x="97" y="630" type="curve"/>
      <point x="108" y="572"/>
      <point x="113" y="489"/>
      <point x="113" y="291" type="curve" smooth="yes"/>
      <point x="113" y="195"/>
      <point x="108" y="-18"/>
      <point x="102" y="-103" type="curve"/>
      <point x="132" y="-109"/>
      <point x="157" y="-111"/>
      <point x="180" y="-111" type="curve" smooth="yes"/>
    </contour>
  </outline>
</glyph>
<glyph name="sterling" format="1">
  <advance width="508"/>
  <unicode hex="00A3"/>
  <outline>
    <contour>
      <point x="445" y="13"/>
      <point x="454" y="67"/>
      <point x="454" y="110" type="curve"/>
      <point x="417" y="94"/>
      <point x="352" y="84"/>
      <point x="288" y="84" type="curve" smooth="yes"/>
      <point x="244" y="84"/>
      <point x="193" y="87"/>
      <point x="164" y="92" type="curve"/>
      <point x="193" y="133"/>
      <point x="201" y="178"/>
      <point x="201" y="224" type="curve" smooth="yes"/>
      <point x="201" y="288"/>
      <point x="184" y="351"/>
      <point x="184" y="398" type="curve" smooth="yes"/>
      <point x="184" y="441"/>
      <point x="207" y="467"/>
      <point x="253" y="475" type="curve"/>
      <point x="292" y="469"/>
      <point x="351" y="442"/>
      <point x="408" y="401" type="curve"/>
      <point x="426" y="426"/>
      <point x="441" y="476"/>
      <point x="441" y="509" type="curve"/>
      <point x="407" y="523"/>
      <point x="328" y="534"/>
      <point x="260" y="534" type="curve" smooth="yes"/>
      <point x="140" y="534"/>
      <point x="73" y="488"/>
      <point x="73" y="408" type="curve" smooth="yes"/>
      <point x="73" y="322"/>
      <point x="127" y="247"/>
      <point x="127" y="174" type="curve" smooth="yes"/>
      <point x="127" y="129"/>
      <point x="108" y="86"/>
      <point x="43" y="40" type="curve"/>
      <point x="43" y="0" type="line"/>
      <point x="82" y="2"/>
      <point x="143" y="3"/>
      <point x="209" y="3" type="curve" smooth="yes"/>
      <point x="303" y="3"/>
      <point x="409" y="0"/>
      <point x="434" y="-5" type="curve"/>
    </contour>
    <component base="uni0335"/>
  </outline>
</glyph>
<glyph name="currency" format="1">
  <advance width="581"/>
  <unicode hex="00A4"/>
  <outline>
    <contour>
      <point x="482" y="409"/>
      <point x="514" y="439"/>
      <point x="538" y="460" type="curve"/>
      <point x="526" y="485"/>
      <point x="513" y="496"/>
      <point x="488" y="511" type="curve"/>
      <point x="475" y="492"/>
      <point x="447" y="462"/>
      <point x="405" y="418" type="curve"/>
      <point x="447" y="375" type="line"/>
    </contour>
    <contour>
      <point x="105" y="34"/>
      <point x="133" y="64"/>
      <point x="173" y="107" type="curve"/>
      <point x="130" y="150" type="line"/>
      <point x="96" y="116"/>
      <point x="65" y="87"/>
      <point x="42" y="66" type="curve"/>
      <point x="54" y="47"/>
      <point x="73" y="27"/>
      <point x="94" y="16" type="curve"/>
    </contour>
    <contour>
      <point x="511" y="28"/>
      <point x="523" y="42"/>
      <point x="538" y="66" type="curve"/>
      <point x="518" y="79"/>
      <point x="488" y="106"/>
      <point x="445" y="148" type="curve"/>
      <point x="402" y="106" type="line"/>
      <point x="436" y="71"/>
      <point x="465" y="40"/>
      <point x="486" y="16" type="curve"/>
    </contour>
    <contour>
      <point x="177" y="423" type="line"/>
      <point x="143" y="457"/>
      <point x="114" y="488"/>
      <point x="92" y="511" type="curve"/>
      <point x="72" y="499"/>
      <point x="54" y="481"/>
      <point x="42" y="460" type="curve"/>
      <point x="60" y="448"/>
      <point x="91" y="421"/>
      <point x="134" y="380" type="curve"/>
    </contour>
    <component base="o" xOffset="44" yOffset="61"/>
  </outline>
</glyph>
<glyph name="brokenbar" format="1">
  <advance width="346"/>
  <unicode hex="00A6"/>
  <outline>
    <contour>
      <point x="137" y="311" type="line"/>
      <point x="168" y="340"/>
      <point x="199" y="366"/>
      <point x="232" y="389" type="curve"/>
      <point x="232" y="450"/>
      <point x="237" y="583"/>
      <point x="243" y="630" type="curve"/>
      <point x="216" y="636"/>
      <point x="193" y="639"/>
      <point x="172" y="639" type="curve" smooth="yes"/>
      <point x="147" y="639"/>
      <point x="120" y="636"/>
      <point x="97" y="630" type="curve"/>
      <point x="108" y="575"/>
      <point x="113" y="497"/>
      <point x="113" y="311" type="curve"/>
    </contour>
    <contour>
      <point x="193" y="-111"/>
      <point x="220" y="-108"/>
      <point x="243" y="-102" type="curve"/>
      <point x="232" y="-47"/>
      <point x="227" y="31"/>
      <point x="227" y="217" type="curve"/>
      <point x="202" y="217" type="line"/>
      <point x="172" y="188"/>
      <point x="141" y="162"/>
      <point x="108" y="139" type="curve"/>
      <point x="108" y="78"/>
      <point x="103" y="-55"/>
      <point x="97" y="-102" type="curve"/>
      <point x="124" y="-108"/>
      <point x="147" y="-111"/>
      <point x="168" y="-111" type="curve" smooth="yes"/>
    </contour>
  </outline>
</glyph>
<glyph name="section" format="1">
  <advance width="465"/>
  <unicode hex="00A7"/>
  <outline>
    <contour>
      <point x="342" y="-188"/>
      <point x="407" y="-141"/>
      <point x="407" y="-52" type="curve" smooth="yes"/>
      <point x="407" y="-6"/>
      <point x="384" y="30"/>
      <point x="337" y="62" type="curve"/>
      <point x="383" y="84"/>
      <point x="407" y="123"/>
      <point x="407" y="176" type="curve" smooth="yes"/>
      <point x="407" y="328"/>
      <point x="163" y="323"/>
      <point x="163" y="419" type="curve" smooth="yes"/>
      <point x="163" y="445"/>
      <point x="183" y="471"/>
      <point x="210" y="475" type="curve"/>
      <point x="244" y="475"/>
      <point x="303" y="449"/>
      <point x="356" y="409" type="curve"/>
      <point x="373" y="431"/>
      <point x="387" y="477"/>
      <point x="387" y="508" type="curve"/>
      <point x="350" y="522"/>
      <point x="302" y="530"/>
      <point x="250" y="530" type="curve" smooth="yes"/>
      <point x="137" y="530"/>
      <point x="62" y="480"/>
      <point x="62" y="405" type="curve" smooth="yes"/>
      <point x="62" y="355"/>
      <point x="87" y="316"/>
      <point x="142" y="282" type="curve"/>
      <point x="91" y="261"/>
      <point x="62" y="223"/>
      <point x="62" y="177" type="curve" smooth="yes"/>
      <point x="62" y="24"/>
      <point x="306" y="22"/>
      <point x="306" y="-67" type="curve" smooth="yes"/>
      <point x="306" y="-107"/>
      <point x="273" y="-131"/>
      <point x="214" y="-131" type="curve" smooth="yes"/>
      <point x="155" y="-131"/>
      <point x="102" y="-114"/>
      <point x="72" y="-85" type="curve"/>
      <point x="61" y="-107"/>
      <point x="57" y="-127"/>
      <point x="57" y="-155" type="curve"/>
      <point x="102" y="-177"/>
      <point x="158" y="-188"/>
      <point x="220" y="-188" type="curve" smooth="yes"/>
    </contour>
    <contour>
      <point x="187" y="138"/>
      <point x="163" y="160"/>
      <point x="163" y="192" type="curve" smooth="yes"/>
      <point x="163" y="217"/>
      <point x="183" y="241"/>
      <point x="209" y="247" type="curve"/>
      <point x="284" y="211"/>
      <point x="307" y="191"/>
      <point x="307" y="160" type="curve" smooth="yes"/>
      <point x="307" y="132"/>
      <point x="290" y="112"/>
      <point x="260" y="103" type="curve"/>
    </contour>
  </outline>
</glyph>
<glyph name="ordfeminine" format="1">
  <advance width="347"/>
  <unicode hex="00AA"/>
  <outline>
    <contour>
      <point x="138" y="293"/>
      <point x="175" y="306"/>
      <point x="208" y="327" type="curve"/>
      <point x="213" y="313"/>
      <point x="222" y="302"/>
      <point x="235" y="293" type="curve"/>
      <point x="259" y="295"/>
      <point x="284" y="304"/>
      <point x="303" y="318" type="curve"/>
      <point x="281" y="339"/>
      <point x="275" y="354"/>
      <point x="275" y="386" type="curve" smooth="yes"/>
      <point x="275" y="416"/>
      <point x="282" y="450"/>
      <point x="282" y="485" type="curve" smooth="yes"/>
      <point x="282" y="541"/>
      <point x="245" y="572"/>
      <point x="180" y="572" type="curve" smooth="yes"/>
      <point x="133" y="572"/>
      <point x="84" y="546"/>
      <point x="56" y="507" type="curve"/>
      <point x="63" y="478" type="line"/>
      <point x="87" y="496"/>
      <point x="119" y="507"/>
      <point x="149" y="507" type="curve" smooth="yes"/>
      <point x="190" y="507"/>
      <point x="207" y="489"/>
      <point x="208" y="445" type="curve"/>
      <point x="98" y="438"/>
      <point x="43" y="408"/>
      <point x="43" y="354" type="curve" smooth="yes"/>
      <point x="43" y="318"/>
      <point x="67" y="293"/>
      <point x="108" y="293" type="curve" smooth="yes"/>
    </contour>
    <contour>
      <point x="130" y="339"/>
      <point x="121" y="354"/>
      <point x="121" y="367" type="curve" smooth="yes"/>
      <point x="121" y="397"/>
      <point x="152" y="415"/>
      <point x="207" y="419" type="curve"/>
      <point x="206" y="396"/>
      <point x="203" y="380"/>
      <point x="203" y="359" type="curve" smooth="yes"/>
      <point x="203" y="356" type="line"/>
      <point x="185" y="344"/>
      <point x="161" y="334"/>
      <point x="142" y="332" type="curve"/>
    </contour>
  </outline>
</glyph>
<glyph name="registered" format="1">
  <advance width="557"/>
  <unicode hex="00AE"/>
  <outline>
    <contour>
      <point x="408" y="218"/>
      <point x="514" y="324"/>
      <point x="514" y="454" type="curve" smooth="yes"/>
      <point x="514" y="584"/>
      <point x="408" y="690"/>
      <point x="278" y="690" type="curve" smooth="yes"/>
      <point x="148" y="690"/>
      <point x="42" y="584"/>
      <point x="42" y="454" type="curve" smooth="yes"/>
      <point x="42" y="324"/>
      <point x="148" y="218"/>
      <point x="278" y="218" type="curve" smooth="yes"/>
    </contour>
    <contour>
      <point x="170" y="257"/>
      <point x="81" y="345"/>
      <point x="81" y="454" type="curve" smooth="yes"/>
      <point x="81" y="562"/>
      <point x="170" y="650"/>
      <point x="278" y="650" type="curve" smooth="yes"/>
      <point x="386" y="650"/>
      <point x="475" y="562"/>
      <point x="475" y="454" type="curve" smooth="yes"/>
      <point x="475" y="345"/>
      <point x="386" y="257"/>
      <point x="278" y="257" type="curve" smooth="yes"/>
    </contour>
    <contour>
      <point x="220" y="323"/>
      <point x="231" y="324"/>
      <point x="242" y="326" type="curve"/>
      <point x="237" y="339"/>
      <point x="234" y="371"/>
      <point x="233" y="420" type="curve"/>
      <point x="244" y="417"/>
      <point x="258" y="416"/>
      <point x="283" y="416" type="curve"/>
      <point x="307" y="374"/>
      <point x="325" y="339"/>
      <point x="332" y="323" type="curve"/>
      <point x="359" y="323"/>
      <point x="380" y="325"/>
      <point x="402" y="333" type="curve"/>
      <point x="382" y="348"/>
      <point x="359" y="385"/>
      <point x="336" y="428" type="curve"/>
      <point x="370" y="444"/>
      <point x="390" y="470"/>
      <point x="390" y="504" type="curve" smooth="yes"/>
      <point x="390" y="560"/>
      <point x="350" y="592"/>
      <point x="276" y="592" type="curve" smooth="yes"/>
      <point x="236" y="592"/>
      <point x="195" y="586"/>
      <point x="173" y="578" type="curve"/>
      <point x="178" y="565"/>
      <point x="181" y="530"/>
      <point x="181" y="474" type="curve" smooth="yes"/>
      <point x="181" y="427"/>
      <point x="179" y="358"/>
      <point x="175" y="326" type="curve"/>
      <point x="187" y="324"/>
      <point x="199" y="323"/>
      <point x="210" y="323" type="curve" smooth="yes"/>
    </contour>
    <contour>
      <point x="277" y="445"/>
      <point x="255" y="449"/>
      <point x="233" y="456" type="curve"/>
      <point x="237" y="552" type="line"/>
      <point x="246" y="555"/>
      <point x="255" y="556"/>
      <point x="265" y="556" type="curve" smooth="yes"/>
      <point x="308" y="556"/>
      <point x="333" y="539"/>
      <point x="333" y="500" type="curve" smooth="yes"/>
      <point x="333" y="474"/>
      <point x="314" y="455"/>
      <point x="291" y="445" type="curve"/>
    </contour>
  </outline>
</glyph>
<glyph name="degree" format="1">
  <advance width="360"/>
  <unicode hex="00B0"/>
  <outline>
    <contour>
      <point x="261" y="345"/>
      <point x="324" y="404"/>
      <point x="324" y="489" type="curve" smooth="yes"/>
      <point x="324" y="566"/>
      <point x="273" y="617"/>
      <point x="195" y="617" type="curve" smooth="yes"/>
      <point x="102" y="617"/>
      <point x="36" y="558"/>
      <point x="36" y="475" type="curve" smooth="yes"/>
      <point x="36" y="397"/>
      <point x="90" y="345"/>
      <point x="170" y="345" type="curve" smooth="yes"/>
    </contour>
    <contour>
      <point x="135" y="397"/>
      <point x="105" y="434"/>
      <point x="105" y="490" type="curve" smooth="yes"/>
      <point x="105" y="542"/>
      <point x="140" y="580"/>
      <point x="187" y="580" type="curve"/>
      <point x="230" y="572"/>
      <point x="255" y="537"/>
      <point x="255" y="487" type="curve" smooth="yes"/>
      <point x="255" y="431"/>
      <point x="225" y="397"/>
      <point x="178" y="397" type="curve" smooth="yes"/>
    </contour>
  </outline>
</glyph>
<glyph name="paragraph" format="1">
  <advance width="443"/>
  <unicode hex="00B6"/>
  <outline>
    <contour>
      <point x="330" y="-6"/>
      <point x="355" y="-4"/>
      <point x="383" y="0" type="curve"/>
      <point x="377" y="59"/>
      <point x="372" y="175"/>
      <point x="372" y="268" type="curve" smooth="yes"/>
      <point x="372" y="393"/>
      <point x="376" y="474"/>
      <point x="385" y="505" type="curve"/>
      <point x="348" y="521"/>
      <point x="279" y="532"/>
      <point x="214" y="532" type="curve" smooth="yes"/>
      <point x="94" y="532"/>
      <point x="25" y="485"/>
      <point x="25" y="376" type="curve" smooth="yes"/>
      <point x="25" y="296"/>
      <point x="69" y="233"/>
      <point x="121" y="203" type="curve"/>
      <point x="154" y="203"/>
      <point x="209" y="217"/>
      <point x="264" y="237" type="curve"/>
      <point x="262" y="115"/>
      <point x="257" y="36"/>
      <point x="248" y="0" type="curve"/>
      <point x="268" y="-4"/>
      <point x="288" y="-6"/>
      <point x="308" y="-6" type="curve" smooth="yes"/>
    </contour>
  </outline>
</glyph>
<glyph name="ordmasculine" format="1">
  <advance width="387"/>
  <unicode hex="00BA"/>
  <outline>
    <contour>
      <point x="274" y="293"/>
      <point x="342" y="353"/>
      <point x="342" y="440" type="curve" smooth="yes"/>
      <point x="342" y="519"/>
      <point x="286" y="572"/>
      <point x="204" y="572" type="curve" smooth="yes"/>
      <point x="110" y="572"/>
      <point x="45" y="511"/>
      <point x="45" y="425" type="curve" smooth="yes"/>
      <point x="45" y="346"/>
      <point x="99" y="293"/>
      <point x="180" y="293" type="curve" smooth="yes"/>
    </contour>
    <contour>
      <point x="149" y="328"/>
      <point x="119" y="364"/>
      <point x="119" y="422" type="curve" smooth="yes"/>
      <point x="119" y="475"/>
      <point x="151" y="508"/>
      <point x="201" y="508" type="curve"/>
      <point x="243" y="496"/>
      <point x="269" y="460"/>
      <point x="269" y="413" type="curve" smooth="yes"/>
      <point x="269" y="359"/>
      <point x="240" y="328"/>
      <point x="192" y="328" type="curve" smooth="yes"/>
    </contour>
  </outline>
</glyph>
<glyph name="AE" format="1">
  <advance width="694"/>
  <unicode hex="00C6"/>
  <outline>
    <contour>
      <point x="59" y="-4"/>
      <point x="72" y="-2"/>
      <point x="85" y="2" type="curve"/>
      <point x="95" y="32"/>
      <point x="111" y="77"/>
      <point x="130" y="128" type="curve"/>
      <point x="152" y="131"/>
      <point x="185" y="132"/>
      <point x="229" y="132" type="curve" smooth="yes"/>
      <point x="267" y="132"/>
      <point x="310" y="131"/>
      <point x="345" y="129" type="curve"/>
      <point x="364" y="77"/>
      <point x="380" y="32"/>
      <point x="390" y="2" type="curve"/>
      <point x="423" y="3"/>
      <point x="478" y="4"/>
      <point x="535" y="4" type="curve" smooth="yes"/>
      <point x="579" y="4"/>
      <point x="626" y="1"/>
      <point x="656" y="-3" type="curve"/>
      <point x="669" y="15"/>
      <point x="677" y="71"/>
      <point x="677" y="108" type="curve"/>
      <point x="623" y="86"/>
      <point x="577" y="83"/>
      <point x="476" y="83" type="curve"/>
      <point x="459" y="124"/>
      <point x="438" y="177"/>
      <point x="417" y="231" type="curve"/>
      <point x="485" y="231"/>
      <point x="527" y="230"/>
      <point x="595" y="224" type="curve"/>
      <point x="598" y="240"/>
      <point x="599" y="254"/>
      <point x="599" y="266" type="curve" smooth="yes"/>
      <point x="599" y="280"/>
      <point x="598" y="293"/>
      <point x="595" y="307" type="curve"/>
      <point x="558" y="300"/>
      <point x="532" y="296"/>
      <point x="462" y="296" type="curve" smooth="yes"/>
      <point x="439" y="296"/>
      <point x="415" y="297"/>
      <point x="392" y="298" type="curve"/>
      <point x="341" y="435" type="line"/>
      <point x="373" y="439"/>
      <point x="415" y="443"/>
      <point x="452" y="443" type="curve" smooth="yes"/>
      <point x="503" y="443"/>
      <point x="561" y="434"/>
      <point x="595" y="416" type="curve"/>
      <point x="608" y="434"/>
      <point x="616" y="490"/>
      <point x="616" y="527" type="curve"/>
      <point x="563" y="522"/>
      <point x="484" y="520"/>
      <point x="407" y="520" type="curve" smooth="yes"/>
      <point x="330" y="520"/>
      <point x="255" y="522"/>
      <point x="209" y="527" type="curve"/>
      <point x="170" y="409"/>
      <point x="46" y="75"/>
      <point x="5" y="2" type="curve"/>
      <point x="20" y="-2"/>
      <point x="34" y="-4"/>
      <point x="49" y="-4" type="curve" smooth="yes"/>
    </contour>
    <contour>
      <point x="229" y="194"/>
      <point x="189" y="196"/>
      <point x="155" y="198" type="curve"/>
      <point x="183" y="275"/>
      <point x="214" y="355"/>
      <point x="237" y="409" type="curve"/>
      <point x="258" y="360"/>
      <point x="290" y="277"/>
      <point x="320" y="196" type="curve"/>
      <point x="304" y="195"/>
      <point x="284" y="194"/>
      <point x="264" y="194" type="curve" smooth="yes"/>
    </contour>
    <contour>
      <point x="353" y="527" type="move" name="top"/>
    </contour>
    <contour>
      <point x="353" y="0" type="move" name="bottom"/>
    </contour>
  </outline>
</glyph>
<glyph name="multiply" format="1">
  <advance width="533"/>
  <unicode hex="00D7"/>
  <outline>
    <contour>
      <point x="185" y="130"/>
      <point x="225" y="173"/>
      <point x="267" y="217" type="curve"/>
      <point x="309" y="173"/>
      <point x="349" y="130"/>
      <point x="390" y="85" type="curve"/>
      <point x="411" y="99"/>
      <point x="433" y="119"/>
      <point x="448" y="143" type="curve"/>
      <point x="403" y="184"/>
      <point x="360" y="224"/>
      <point x="316" y="266" type="curve"/>
      <point x="360" y="308"/>
      <point x="403" y="348"/>
      <point x="448" y="389" type="curve"/>
      <point x="430" y="413"/>
      <point x="416" y="428"/>
      <point x="390" y="447" type="curve"/>
      <point x="349" y="402"/>
      <point x="309" y="359"/>
      <point x="267" y="315" type="curve"/>
      <point x="225" y="359"/>
      <point x="185" y="402"/>
      <point x="144" y="447" type="curve"/>
      <point x="120" y="429"/>
      <point x="105" y="415"/>
      <point x="86" y="389" type="curve"/>
      <point x="131" y="348"/>
      <point x="174" y="308"/>
      <point x="218" y="266" type="curve"/>
      <point x="174" y="224"/>
      <point x="131" y="184"/>
      <point x="86" y="143" type="curve"/>
      <point x="100" y="122"/>
      <point x="120" y="100"/>
      <point x="144" y="85" type="curve"/>
    </contour>
  </outline>
</glyph>
<glyph name="Thorn" format="1">
  <advance width="487"/>
  <unicode hex="00DE"/>
  <outline>
    <contour>
      <point x="147" y="-6"/>
      <point x="168" y="-4"/>
      <point x="188" y="0" type="curve"/>
      <point x="182" y="16"/>
      <point x="178" y="45"/>
      <point x="175" y="86" type="curve"/>
      <point x="195" y="82"/>
      <point x="217" y="80"/>
      <point x="239" y="80" type="curve" smooth="yes"/>
      <point x="371" y="80"/>
      <point x="462" y="160"/>
      <point x="462" y="276" type="curve" smooth="yes"/>
      <point x="462" y="389"/>
      <point x="386" y="452"/>
      <point x="249" y="452" type="curve" smooth="yes"/>
      <point x="225" y="452"/>
      <point x="200" y="450"/>
      <point x="178" y="447" type="curve"/>
      <point x="179" y="478"/>
      <point x="181" y="506"/>
      <point x="183" y="527" type="curve"/>
      <point x="159" y="531"/>
      <point x="138" y="533"/>
      <point x="119" y="533" type="curve" smooth="yes"/>
      <point x="99" y="533"/>
      <point x="77" y="531"/>
      <point x="57" y="527" type="curve"/>
      <point x="68" y="497"/>
      <point x="73" y="419"/>
      <point x="73" y="298" type="curve" smooth="yes"/>
      <point x="73" y="196"/>
      <point x="68" y="67"/>
      <point x="62" y="0" type="curve"/>
      <point x="87" y="-4"/>
      <point x="108" y="-6"/>
      <point x="127" y="-6" type="curve" smooth="yes"/>
    </contour>
    <contour>
      <point x="252" y="137"/>
      <point x="213" y="146"/>
      <point x="173" y="159" type="curve"/>
      <point x="170" y="193"/>
      <point x="171" y="322"/>
      <point x="175" y="372" type="curve"/>
      <point x="192" y="378"/>
      <point x="210" y="381"/>
      <point x="229" y="381" type="curve" smooth="yes"/>
      <point x="308" y="381"/>
      <point x="353" y="347"/>
      <point x="353" y="268" type="curve" smooth="yes"/>
      <point x="353" y="208"/>
      <point x="319" y="157"/>
      <point x="277" y="137" type="curve"/>
    </contour>
    <contour>
      <point x="244" y="527" type="move" name="top"/>
    </contour>
    <contour>
      <point x="244" y="0" type="move" name="bottom"/>
    </contour>
  </outline>
</glyph>
<glyph name="germandbls" format="1">
  <advance width="532"/>
  <unicode hex="00DF"/>
  <outline>
    <contour>
      <point x="116" y="-94"/>
      <point x="148" y="-52"/>
      <point x="158" y="13" type="curve"/>
      <point x="194" y="-3"/>
      <point x="236" y="-11"/>
      <point x="281" y="-11" type="curve" smooth="yes"/>
      <point x="420" y="-11"/>
      <point x="493" y="47"/>
      <point x="493" y="154" type="curve" smooth="yes"/>
      <point x="493" y="237"/>
      <point x="431" y="301"/>
      <point x="342" y="306" type="curve"/>
      <point x="410" y="368" type="line" smooth="yes"/>
      <point x="459" y="412"/>
      <point x="476" y="440"/>
      <point x="476" y="477" type="curve" smooth="yes"/>
      <point x="476" y="507"/>
      <point x="464" y="532"/>
      <point x="444" y="546" type="curve"/>
      <point x="410" y="524"/>
      <point x="363" y="516"/>
      <point x="271" y="516" type="curve" smooth="yes"/>
      <point x="195" y="516"/>
      <point x="135" y="520"/>
      <point x="106" y="527" type="curve"/>
      <point x="79" y="488"/>
      <point x="56" y="448"/>
      <point x="56" y="369" type="curve" smooth="yes"/>
      <point x="56" y="256"/>
      <point x="65" y="146"/>
      <point x="65" y="80" type="curve" smooth="yes"/>
      <point x="65" y="-58"/>
      <point x="53" y="-94"/>
      <point x="20" y="-143" type="curve"/>
      <point x="40" y="-159" type="line"/>
    </contour>
    <contour>
      <point x="230" y="50"/>
      <point x="191" y="62"/>
      <point x="161" y="83" type="curve"/>
      <point x="160" y="129"/>
      <point x="155" y="195"/>
      <point x="155" y="278" type="curve" smooth="yes"/>
      <point x="155" y="340"/>
      <point x="156" y="387"/>
      <point x="158" y="423" type="curve"/>
      <point x="187" y="429"/>
      <point x="225" y="433"/>
      <point x="267" y="433" type="curve" smooth="yes"/>
      <point x="320" y="433"/>
      <point x="380" y="431"/>
      <point x="401" y="428" type="curve"/>
      <point x="243" y="286" type="line" smooth="yes"/>
      <point x="223" y="269"/>
      <point x="212" y="254"/>
      <point x="208" y="241" type="curve"/>
      <point x="208" y="232"/>
      <point x="231" y="217"/>
      <point x="245" y="217" type="curve"/>
      <point x="260" y="245"/>
      <point x="288" y="263"/>
      <point x="316" y="263" type="curve"/>
      <point x="360" y="245"/>
      <point x="385" y="205"/>
      <point x="385" y="154" type="curve" smooth="yes"/>
      <point x="385" y="89"/>
      <point x="343" y="50"/>
      <point x="272" y="50" type="curve" smooth="yes"/>
    </contour>
  </outline>
</glyph>
<glyph name="thorn" format="1">
  <advance width="505"/>
  <unicode hex="00FE"/>
  <outline>
    <contour>
      <point x="112" y="-180"/>
      <point x="149" y="-174"/>
      <point x="187" y="-160" type="curve"/>
      <point x="178" y="-121"/>
      <point x="172" y="-67"/>
      <point x="170" y="7" type="curve"/>
      <point x="194" y="-4"/>
      <point x="221" y="-9"/>
      <point x="249" y="-9" type="curve" smooth="yes"/>
      <point x="384" y="-9"/>
      <point x="463" y="73"/>
      <point x="463" y="212" type="curve" smooth="yes"/>
      <point x="463" y="344"/>
      <point x="405" y="413"/>
      <point x="298" y="413" type="curve" smooth="yes"/>
      <point x="252" y="413"/>
      <point x="205" y="393"/>
      <point x="171" y="362" type="curve"/>
      <point x="173" y="443"/>
      <point x="176" y="507"/>
      <point x="180" y="547" type="curve"/>
      <point x="136" y="547"/>
      <point x="99" y="543"/>
      <point x="56" y="527" type="curve"/>
      <point x="69" y="477"/>
      <point x="75" y="399"/>
      <point x="75" y="283" type="curve" smooth="yes"/>
      <point x="75" y="90"/>
      <point x="70" y="-91"/>
      <point x="63" y="-180" type="curve"/>
    </contour>
    <contour>
      <point x="217" y="42"/>
      <point x="189" y="55"/>
      <point x="168" y="80" type="curve"/>
      <point x="166" y="153"/>
      <point x="167" y="226"/>
      <point x="170" y="307" type="curve"/>
      <point x="198" y="322"/>
      <point x="235" y="332"/>
      <point x="268" y="332" type="curve"/>
      <point x="322" y="311"/>
      <point x="354" y="253"/>
      <point x="354" y="177" type="curve" smooth="yes"/>
      <point x="354" y="92"/>
      <point x="314" y="42"/>
      <point x="247" y="42" type="curve" smooth="yes"/>
    </contour>
    <contour>
      <point x="251" y="407" type="move" name="top"/>
    </contour>
    <contour>
      <point x="251" y="0" type="move" name="bottom"/>
    </contour>
  </outline>
</glyph>
<glyph name="dotlessi" format="1">
  <advance width="245"/>
  <unicode hex="0131"/>
  <outline>
    <contour>
      <point x="151" y="-9"/>
      <point x="183" y="0"/>
      <point x="208" y="27" type="curve"/>
      <point x="177" y="61"/>
      <point x="169" y="84"/>
      <point x="169" y="192" type="curve" smooth="yes"/>
      <point x="169" y="294"/>
      <point x="174" y="379"/>
      <point x="181" y="417" type="curve"/>
      <point x="137" y="417"/>
      <point x="100" y="413"/>
      <point x="57" y="397" type="curve"/>
      <point x="70" y="376"/>
      <point x="76" y="322"/>
      <point x="76" y="272" type="curve" smooth="yes"/>
      <point x="76" y="208"/>
      <point x="72" y="144"/>
      <point x="72" y="73" type="curve" smooth="yes"/>
      <point x="72" y="10"/>
      <point x="89" y="-9"/>
      <point x="132" y="-9" type="curve" smooth="yes"/>
    </contour>
    <contour>
      <point x="170" y="0" type="move" name="ogonek"/>
    </contour>
    <contour>
      <point x="126" y="0" type="move" name="bottom"/>
    </contour>
    <contour>
      <point x="121" y="407" type="move" name="top"/>
    </contour>
  </outline>
</glyph>
<glyph name="OE" format="1">
  <advance width="806"/>
  <unicode hex="0152"/>
  <outline>
    <contour>
      <point x="412" y="-6"/>
      <point x="469" y="4"/>
      <point x="560" y="4" type="curve" smooth="yes"/>
      <point x="629" y="4"/>
      <point x="700" y="2"/>
      <point x="747" y="-3" type="curve"/>
      <point x="760" y="15"/>
      <point x="768" y="71"/>
      <point x="768" y="108" type="curve"/>
      <point x="729" y="91"/>
      <point x="663" y="81"/>
      <point x="605" y="81" type="curve" smooth="yes"/>
      <point x="571" y="81"/>
      <point x="534" y="85"/>
      <point x="507" y="90" type="curve"/>
      <point x="506" y="113"/>
      <point x="504" y="200"/>
      <point x="504" y="232" type="curve"/>
      <point x="579" y="232"/>
      <point x="618" y="230"/>
      <point x="712" y="224" type="curve"/>
      <point x="715" y="240"/>
      <point x="716" y="254"/>
      <point x="716" y="266" type="curve" smooth="yes"/>
      <point x="716" y="280"/>
      <point x="715" y="293"/>
      <point x="712" y="307" type="curve"/>
      <point x="675" y="300"/>
      <point x="649" y="296"/>
      <point x="579" y="296" type="curve" smooth="yes"/>
      <point x="555" y="296"/>
      <point x="529" y="296"/>
      <point x="504" y="298" type="curve"/>
      <point x="505" y="345"/>
      <point x="507" y="394"/>
      <point x="510" y="435" type="curve"/>
      <point x="536" y="440"/>
      <point x="569" y="443"/>
      <point x="600" y="443" type="curve" smooth="yes"/>
      <point x="651" y="443"/>
      <point x="709" y="434"/>
      <point x="743" y="416" type="curve"/>
      <point x="756" y="434"/>
      <point x="764" y="490"/>
      <point x="764" y="527" type="curve"/>
      <point x="711" y="522"/>
      <point x="632" y="520"/>
      <point x="555" y="520" type="curve" smooth="yes"/>
      <point x="454" y="520"/>
      <point x="408" y="532"/>
      <point x="318" y="532" type="curve" smooth="yes"/>
      <point x="138" y="532"/>
      <point x="38" y="437"/>
      <point x="38" y="266" type="curve" smooth="yes"/>
      <point x="38" y="105"/>
      <point x="160" y="-6"/>
      <point x="338" y="-6" type="curve" smooth="yes"/>
    </contour>
    <contour>
      <point x="211" y="64"/>
      <point x="147" y="157"/>
      <point x="147" y="248" type="curve" smooth="yes"/>
      <point x="147" y="398"/>
      <point x="218" y="461"/>
      <point x="339" y="461" type="curve" smooth="yes"/>
      <point x="360" y="461"/>
      <point x="382" y="457"/>
      <point x="401" y="451" type="curve"/>
      <point x="404" y="413"/>
      <point x="405" y="362"/>
      <point x="405" y="300" type="curve" smooth="yes"/>
      <point x="405" y="226"/>
      <point x="403" y="139"/>
      <point x="399" y="70" type="curve"/>
      <point x="357" y="59"/>
      <point x="316" y="51"/>
      <point x="291" y="51" type="curve"/>
    </contour>
    <contour>
      <point x="403" y="527" type="move" name="top"/>
    </contour>
    <contour>
      <point x="403" y="0" type="move" name="bottom"/>
    </contour>
  </outline>
</glyph>
<glyph name="acutecomb" format="1">
  <advance width="207"/>
  <unicode hex="0301"/>
  <outline>
    <contour>
      <point x="94" y="486"/>
      <point x="167" y="519"/>
      <point x="207" y="564" type="curve"/>
      <point x="189" y="595"/>
      <point x="155" y="611"/>
      <point x="102" y="611" type="curve"/>
      <point x="95" y="570"/>
      <point x="51" y="523"/>
      <point x="0" y="500" type="curve"/>
      <point x="9" y="474" type="line"/>
    </contour>
    <contour>
      <point x="104" y="607" type="move" name="top"/>
    </contour>
    <contour>
      <point x="85" y="407" type="move" name="_top"/>
    </contour>
  </outline>
</glyph>
<glyph name="tildecomb" format="1">
  <advance width="305"/>
  <unicode hex="0303"/>
  <outline>
    <contour>
      <point x="64" y="603"/>
      <point x="258" y="381"/>
      <point x="285" y="581" type="curve"/>
      <point x="262" y="593" type="line"/>
      <point x="242" y="501"/>
      <point x="48" y="723"/>
      <point x="21" y="523" type="curve"/>
      <point x="45" y="511" type="line"/>
    </contour>
    <contour>
      <point x="154" y="607" type="move" name="top"/>
    </contour>
    <contour>
      <point x="154" y="407" type="move" name="_top"/>
    </contour>
  </outline>
</glyph>
<glyph name="uni0307" format="1">
  <advance width="212"/>
  <unicode hex="0307"/>
  <outline>
    <contour>
      <point x="131" y="495"/>
      <point x="153" y="517"/>
      <point x="174" y="542" type="curve"/>
      <point x="149" y="563"/>
      <point x="126" y="585"/>
      <point x="105" y="610" type="curve"/>
      <point x="80" y="589"/>
      <point x="58" y="567"/>
      <point x="37" y="542" type="curve"/>
      <point x="62" y="521"/>
      <point x="84" y="499"/>
      <point x="105" y="474" type="curve"/>
    </contour>
    <contour>
      <point x="106" y="607" type="move" name="top"/>
    </contour>
    <contour>
      <point x="106" y="407" type="move" name="_top"/>
    </contour>
  </outline>
</glyph>
<glyph name="uni030B" format="1">
  <advance width="370"/>
  <unicode hex="030B"/>
  <outline>
    <contour>
      <point x="268" y="486"/>
      <point x="330" y="519"/>
      <point x="370" y="564" type="curve"/>
      <point x="352" y="595"/>
      <point x="318" y="611"/>
      <point x="265" y="611" type="curve"/>
      <point x="258" y="570"/>
      <point x="224" y="523"/>
      <point x="183" y="500" type="curve"/>
      <point x="192" y="474" type="line"/>
    </contour>
    <contour>
      <point x="85" y="486"/>
      <point x="147" y="519"/>
      <point x="187" y="564" type="curve"/>
      <point x="169" y="595"/>
      <point x="135" y="611"/>
      <point x="82" y="611" type="curve"/>
      <point x="75" y="570"/>
      <point x="41" y="523"/>
      <point x="0" y="500" type="curve"/>
      <point x="9" y="474" type="line"/>
    </contour>
    <contour>
      <point x="185" y="611" type="move" name="top"/>
    </contour>
    <contour>
      <point x="155" y="407" type="move" name="_top"/>
    </contour>
  </outline>
</glyph>
<glyph name="uni030C" format="1">
  <advance width="276"/>
  <unicode hex="030C"/>
  <outline>
    <contour>
      <point x="125" y="475"/>
      <point x="156" y="478"/>
      <point x="186" y="489" type="curve"/>
      <point x="210" y="525"/>
      <point x="247" y="575"/>
      <point x="276" y="609" type="curve"/>
      <point x="249" y="615"/>
      <point x="229" y="617"/>
      <point x="208" y="617" type="curve"/>
      <point x="155" y="535" type="line"/>
      <point x="99" y="617" type="line"/>
      <point x="61" y="617"/>
      <point x="30" y="613"/>
      <point x="0" y="603" type="curve"/>
      <point x="30" y="569"/>
      <point x="55" y="533"/>
      <point x="87" y="475" type="curve"/>
    </contour>
    <contour>
      <point x="137" y="617" type="move" name="top"/>
    </contour>
    <contour>
      <point x="129" y="407" type="move" name="_top"/>
    </contour>
  </outline>
</glyph>
<glyph name="uni0312" format="1">
  <advance width="169"/>
  <unicode hex="0312"/>
  <outline>
    <component base="uni0326" xOffset="170" yOffset="417" xScale="-1" yScale="-1"/>
    <contour>
      <point x="85" y="662" type="move" name="top"/>
    </contour>
    <contour>
      <point x="85" y="407" type="move" name="_top"/>
    </contour>
  </outline>
</glyph>
<glyph name="uni0326" format="1">
  <advance width="171"/>
  <unicode hex="0326"/>
  <outline>
    <contour>
      <point x="120" y="-198"/>
      <point x="143" y="-140"/>
      <point x="143" y="-60" type="curve"/>
      <point x="114" y="-40" type="line"/>
      <point x="86" y="-44"/>
      <point x="50" y="-60"/>
      <point x="27" y="-79" type="curve"/>
      <point x="46" y="-102"/>
      <point x="61" y="-140"/>
      <point x="61" y="-168" type="curve" smooth="yes"/>
      <point x="61" y="-192"/>
      <point x="55" y="-216"/>
      <point x="44" y="-234" type="curve"/>
      <point x="69" y="-252" type="line"/>
    </contour>
    <contour>
      <point x="85" y="0" type="move" name="_bottom"/>
    </contour>
    <contour>
      <point x="85" y="-255" type="move" name="bottom"/>
    </contour>
  </outline>
</glyph>
<glyph name="uni0327" format="1">
  <advance width="203"/>
  <unicode hex="0327"/>
  <outline>
    <contour>
      <point x="166" y="-219"/>
      <point x="199" y="-190"/>
      <point x="199" y="-140" type="curve" smooth="yes"/>
      <point x="199" y="-92"/>
      <point x="162" y="-55"/>
      <point x="102" y="-43" type="curve"/>
      <point x="111" y="14" type="line"/>
      <point x="71" y="14" type="line"/>
      <point x="55" y="-50" type="line"/>
      <point x="103" y="-61"/>
      <point x="129" y="-85"/>
      <point x="129" y="-118" type="curve" smooth="yes"/>
      <point x="129" y="-149"/>
      <point x="108" y="-169"/>
      <point x="74" y="-169" type="curve" smooth="yes"/>
      <point x="53" y="-169"/>
      <point x="30" y="-161"/>
      <point x="13" y="-147" type="curve"/>
      <point x="3" y="-173" type="line"/>
      <point x="25" y="-200"/>
      <point x="66" y="-219"/>
      <point x="106" y="-219" type="curve" smooth="yes"/>
    </contour>
    <contour>
      <point x="88" y="0" type="move" name="_bottom"/>
    </contour>
  </outline>
</glyph>
<glyph name="uni0328" format="1">
  <advance width="213"/>
  <unicode hex="0328"/>
  <outline>
    <contour>
      <point x="144" y="-211"/>
      <point x="187" y="-189"/>
      <point x="209" y="-157" type="curve"/>
      <point x="200" y="-131" type="line"/>
      <point x="182" y="-147"/>
      <point x="158" y="-157"/>
      <point x="136" y="-157" type="curve" smooth="yes"/>
      <point x="98" y="-157"/>
      <point x="76" y="-134"/>
      <point x="76" y="-96" type="curve" smooth="yes"/>
      <point x="76" y="-49"/>
      <point x="103" y="-16"/>
      <point x="153" y="0" type="curve"/>
      <point x="64" y="0"/>
      <point x="4" y="-48"/>
      <point x="4" y="-118" type="curve" smooth="yes"/>
      <point x="4" y="-177"/>
      <point x="40" y="-211"/>
      <point x="102" y="-211" type="curve" smooth="yes"/>
    </contour>
    <contour>
      <point x="153" y="0" type="move" name="_ogonek"/>
    </contour>
  </outline>
</glyph>
<glyph name="uni0336" format="1">
  <advance width="635"/>
  <unicode hex="0336"/>
  <outline>
    <contour>
      <point x="137" y="192"/>
      <point x="176" y="195"/>
      <point x="304" y="195" type="curve" smooth="yes"/>
      <point x="397" y="195"/>
      <point x="512" y="192"/>
      <point x="573" y="188" type="curve"/>
      <point x="577" y="201"/>
      <point x="581" y="215"/>
      <point x="581" y="226" type="curve" smooth="yes"/>
      <point x="581" y="239"/>
      <point x="577" y="251"/>
      <point x="573" y="263" type="curve"/>
      <point x="507" y="257"/>
      <point x="460" y="254"/>
      <point x="334" y="254" type="curve" smooth="yes"/>
      <point x="239" y="254"/>
      <point x="129" y="256"/>
      <point x="64" y="261" type="curve"/>
      <point x="58" y="248"/>
      <point x="55" y="234"/>
      <point x="55" y="223" type="curve" smooth="yes"/>
      <point x="55" y="211"/>
      <point x="58" y="198"/>
      <point x="64" y="186" type="curve"/>
    </contour>
    <contour>
      <point x="318" y="224" type="move" name="_center"/>
    </contour>
  </outline>
</glyph>
<glyph name="uni0338" format="1">
  <advance width="334"/>
  <unicode hex="0338"/>
  <outline>
    <contour>
      <point x="41" y="-100"/>
      <point x="57" y="-96"/>
      <point x="73" y="-91" type="curve"/>
      <point x="94" y="2"/>
      <point x="281" y="446"/>
      <point x="347" y="592" type="curve"/>
      <point x="332" y="597"/>
      <point x="320" y="601"/>
      <point x="307" y="601" type="curve" smooth="yes"/>
      <point x="292" y="601"/>
      <point x="276" y="597"/>
      <point x="260" y="592" type="curve"/>
      <point x="239" y="500"/>
      <point x="53" y="55"/>
      <point x="-14" y="-91" type="curve"/>
      <point x="1" y="-96"/>
      <point x="14" y="-100"/>
      <point x="26" y="-100" type="curve" smooth="yes"/>
    </contour>
    <contour>
      <point x="167" y="251" type="move" name="_center"/>
    </contour>
  </outline>
</glyph>
<glyph name="uni03A9" format="1">
  <advance width="580"/>
  <unicode hex="03A9"/>
  <outline>
    <contour>
      <point x="91" y="-1"/>
      <point x="146" y="0"/>
      <point x="196" y="0" type="curve" smooth="yes"/>
      <point x="233" y="0" type="line"/>
      <point x="233" y="112" type="line"/>
      <point x="177" y="139"/>
      <point x="142" y="200"/>
      <point x="142" y="280" type="curve" smooth="yes"/>
      <point x="142" y="375"/>
      <point x="209" y="444"/>
      <point x="303" y="444" type="curve"/>
      <point x="387" y="428"/>
      <point x="438" y="364"/>
      <point x="438" y="275" type="curve" smooth="yes"/>
      <point x="438" y="197"/>
      <point x="404" y="139"/>
      <point x="347" y="113" type="curve"/>
      <point x="347" y="0" type="line"/>
      <point x="384" y="0" type="line" smooth="yes"/>
      <point x="434" y="0"/>
      <point x="491" y="-1"/>
      <point x="534" y="-2" type="curve"/>
      <point x="536" y="8"/>
      <point x="537" y="19"/>
      <point x="537" y="30" type="curve" smooth="yes"/>
      <point x="537" y="42"/>
      <point x="536" y="58"/>
      <point x="534" y="71" type="curve"/>
      <point x="501" y="62"/>
      <point x="450" y="52"/>
      <point x="406" y="50" type="curve"/>
      <point x="406" y="94" type="line"/>
      <point x="491" y="136"/>
      <point x="545" y="216"/>
      <point x="545" y="318" type="curve" smooth="yes"/>
      <point x="545" y="447"/>
      <point x="449" y="533"/>
      <point x="307" y="533" type="curve" smooth="yes"/>
      <point x="147" y="533"/>
      <point x="35" y="434"/>
      <point x="35" y="292" type="curve" smooth="yes"/>
      <point x="35" y="192"/>
      <point x="89" y="117"/>
      <point x="175" y="88" type="curve"/>
      <point x="175" y="50" type="line"/>
      <point x="131" y="52"/>
      <point x="83" y="62"/>
      <point x="46" y="71" type="curve"/>
      <point x="44" y="58"/>
      <point x="43" y="42"/>
      <point x="43" y="30" type="curve" smooth="yes"/>
      <point x="43" y="19"/>
      <point x="44" y="8"/>
      <point x="46" y="-2" type="curve"/>
    </contour>
  </outline>
</glyph>
<glyph name="bullet" format="1">
  <advance width="346"/>
  <unicode hex="2022"/>
  <outline>
    <contour>
      <point x="223" y="178"/>
      <point x="266" y="221"/>
      <point x="308" y="272" type="curve"/>
      <point x="257" y="313"/>
      <point x="214" y="357"/>
      <point x="173" y="407" type="curve"/>
      <point x="122" y="366"/>
      <point x="79" y="323"/>
      <point x="37" y="272" type="curve"/>
      <point x="88" y="230"/>
      <point x="131" y="187"/>
      <point x="173" y="137" type="curve"/>
    </contour>
  </outline>
</glyph>
<glyph name="guilsinglleft" format="1">
  <advance width="277"/>
  <unicode hex="2039"/>
  <outline>
    <contour>
      <point x="201" y="60"/>
      <point x="220" y="80"/>
      <point x="238" y="108" type="curve"/>
      <point x="125" y="222" type="line"/>
      <point x="238" y="336" type="line"/>
      <point x="220" y="364"/>
      <point x="201" y="385"/>
      <point x="169" y="409" type="curve"/>
      <point x="127" y="348"/>
      <point x="86" y="299"/>
      <point x="28" y="236" type="curve"/>
      <point x="28" y="209" type="line"/>
      <point x="86" y="145"/>
      <point x="127" y="97"/>
      <point x="169" y="35" type="curve"/>
    </contour>
  </outline>
</glyph>
<glyph name="uni2113" format="1">
  <advance width="290"/>
  <unicode hex="2113"/>
  <outline>
    <contour>
      <point x="218" y="-9"/>
      <point x="262" y="51"/>
      <point x="262" y="131" type="curve"/>
      <point x="240" y="131" type="line"/>
      <point x="240" y="87"/>
      <point x="220" y="52"/>
      <point x="196" y="48" type="curve"/>
      <point x="189" y="74"/>
      <point x="187" y="108"/>
      <point x="187" y="192" type="curve" smooth="yes"/>
      <point x="187" y="245" type="line"/>
      <point x="236" y="298"/>
      <point x="258" y="368"/>
      <point x="258" y="426" type="curve" smooth="yes"/>
      <point x="258" y="494"/>
      <point x="229" y="547"/>
      <point x="183" y="547" type="curve" smooth="yes"/>
      <point x="146" y="547"/>
      <point x="118" y="536"/>
      <point x="94" y="516" type="curve"/>
      <point x="94" y="317" type="line" smooth="yes"/>
      <point x="94" y="233"/>
      <point x="90" y="158"/>
      <point x="90" y="85" type="curve" smooth="yes"/>
      <point x="90" y="13"/>
      <point x="107" y="-9"/>
      <point x="150" y="-9" type="curve" smooth="yes"/>
    </contour>
    <contour>
      <point x="187" y="504" type="line"/>
      <point x="212" y="504"/>
      <point x="236" y="471"/>
      <point x="236" y="426" type="curve" smooth="yes"/>
      <point x="236" y="373"/>
      <point x="218" y="320"/>
      <point x="187" y="278" type="curve"/>
    </contour>
  </outline>
</glyph>
<glyph name="trademark" format="1">
  <advance width="693"/>
  <unicode hex="2122"/>
  <outline>
    <contour>
      <point x="334" y="323"/>
      <point x="342" y="324"/>
      <point x="349" y="326" type="curve"/>
      <point x="345" y="341"/>
      <point x="343" y="380"/>
      <point x="343" y="440" type="curve" smooth="yes"/>
      <point x="343" y="464"/>
      <point x="343" y="490"/>
      <point x="344" y="514" type="curve"/>
      <point x="378" y="450"/>
      <point x="420" y="365"/>
      <point x="438" y="326" type="curve"/>
      <point x="441" y="325"/>
      <point x="445" y="324"/>
      <point x="449" y="324" type="curve" smooth="yes"/>
      <point x="453" y="324"/>
      <point x="458" y="325"/>
      <point x="462" y="326" type="curve"/>
      <point x="482" y="368"/>
      <point x="528" y="464"/>
      <point x="563" y="529" type="curve"/>
      <point x="563" y="514"/>
      <point x="564" y="496"/>
      <point x="564" y="476" type="curve" smooth="yes"/>
      <point x="564" y="424"/>
      <point x="561" y="359"/>
      <point x="558" y="326" type="curve"/>
      <point x="571" y="324"/>
      <point x="582" y="323"/>
      <point x="592" y="323" type="curve" smooth="yes"/>
      <point x="602" y="323"/>
      <point x="614" y="324"/>
      <point x="624" y="326" type="curve"/>
      <point x="618" y="341"/>
      <point x="615" y="380"/>
      <point x="615" y="440" type="curve" smooth="yes"/>
      <point x="615" y="492"/>
      <point x="618" y="557"/>
      <point x="621" y="590" type="curve"/>
      <point x="609" y="592"/>
      <point x="597" y="593"/>
      <point x="587" y="593" type="curve" smooth="yes"/>
      <point x="574" y="593"/>
      <point x="563" y="592"/>
      <point x="555" y="590" type="curve"/>
      <point x="537" y="551"/>
      <point x="491" y="457"/>
      <point x="461" y="400" type="curve"/>
      <point x="432" y="452"/>
      <point x="384" y="551"/>
      <point x="367" y="590" type="curve"/>
      <point x="353" y="592"/>
      <point x="343" y="593"/>
      <point x="333" y="593" type="curve" smooth="yes"/>
      <point x="322" y="593"/>
      <point x="312" y="592"/>
      <point x="302" y="590" type="curve"/>
      <point x="306" y="569"/>
      <point x="308" y="536"/>
      <point x="308" y="475" type="curve" smooth="yes"/>
      <point x="308" y="424"/>
      <point x="306" y="359"/>
      <point x="304" y="326" type="curve"/>
      <point x="312" y="324"/>
      <point x="320" y="323"/>
      <point x="327" y="323" type="curve" smooth="yes"/>
    </contour>
    <contour>
      <point x="162" y="323"/>
      <point x="173" y="324"/>
      <point x="183" y="326" type="curve"/>
      <point x="177" y="341"/>
      <point x="174" y="379"/>
      <point x="174" y="440" type="curve" smooth="yes"/>
      <point x="174" y="473"/>
      <point x="176" y="514"/>
      <point x="178" y="545" type="curve"/>
      <point x="210" y="545"/>
      <point x="242" y="543"/>
      <point x="262" y="542" type="curve"/>
      <point x="264" y="551"/>
      <point x="265" y="560"/>
      <point x="265" y="567" type="curve" smooth="yes"/>
      <point x="265" y="575"/>
      <point x="264" y="583"/>
      <point x="262" y="591" type="curve"/>
      <point x="248" y="587"/>
      <point x="216" y="585"/>
      <point x="165" y="585" type="curve" smooth="yes"/>
      <point x="120" y="585"/>
      <point x="64" y="587"/>
      <point x="36" y="589" type="curve"/>
      <point x="34" y="580"/>
      <point x="33" y="572"/>
      <point x="33" y="565" type="curve" smooth="yes"/>
      <point x="33" y="557"/>
      <point x="34" y="548"/>
      <point x="36" y="540" type="curve"/>
      <point x="48" y="544"/>
      <point x="76" y="546"/>
      <point x="121" y="546" type="curve"/>
      <point x="122" y="528"/>
      <point x="123" y="505"/>
      <point x="123" y="476" type="curve" smooth="yes"/>
      <point x="123" y="425"/>
      <point x="120" y="359"/>
      <point x="117" y="326" type="curve"/>
      <point x="130" y="324"/>
      <point x="141" y="323"/>
      <point x="151" y="323" type="curve" smooth="yes"/>
    </contour>
  </outline>
</glyph>
<glyph name="product" format="1">
  <advance width="541"/>
  <unicode hex="220F"/>
  <outline>
    <contour>
      <point x="69" y="444"/>
      <point x="168" y="453"/>
      <point x="257" y="453" type="curve" smooth="yes"/>
      <point x="331" y="453"/>
      <point x="405" y="452"/>
      <point x="486" y="448" type="curve"/>
      <point x="505" y="486"/>
      <point x="513" y="522"/>
      <point x="513" y="561" type="curve"/>
      <point x="469" y="551"/>
      <point x="371" y="542"/>
      <point x="283" y="542" type="curve" smooth="yes"/>
      <point x="208" y="542"/>
      <point x="135" y="543"/>
      <point x="55" y="547" type="curve"/>
      <point x="36" y="509"/>
      <point x="27" y="474"/>
      <point x="27" y="434" type="curve"/>
    </contour>
    <component base="I" xOffset="25"/>
    <component base="I" xOffset="270"/>
  </outline>
</glyph>
<glyph name="summation" format="1">
  <advance width="519"/>
  <unicode hex="2211"/>
  <outline>
    <contour>
      <point x="444" y="31"/>
      <point x="451" y="66"/>
      <point x="449" y="108" type="curve"/>
      <point x="400" y="96"/>
      <point x="328" y="89"/>
      <point x="262" y="89" type="curve" smooth="yes"/>
      <point x="218" y="89"/>
      <point x="181" y="90"/>
      <point x="151" y="92" type="curve"/>
      <point x="397" y="284" type="line"/>
      <point x="344" y="324"/>
      <point x="294" y="376"/>
      <point x="233" y="453" type="curve"/>
      <point x="315" y="453"/>
      <point x="361" y="452"/>
      <point x="444" y="448" type="curve"/>
      <point x="460" y="485"/>
      <point x="468" y="520"/>
      <point x="466" y="561" type="curve"/>
      <point x="416" y="549"/>
      <point x="344" y="542"/>
      <point x="279" y="542" type="curve" smooth="yes"/>
      <point x="207" y="542"/>
      <point x="161" y="543"/>
      <point x="91" y="547" type="curve"/>
      <point x="75" y="509"/>
      <point x="67" y="473"/>
      <point x="69" y="434" type="curve"/>
      <point x="118" y="401"/>
      <point x="146" y="372"/>
      <point x="247" y="250" type="curve"/>
      <point x="155" y="182"/>
      <point x="87" y="123"/>
      <point x="62" y="86" type="curve"/>
      <point x="54" y="61"/>
      <point x="50" y="31"/>
      <point x="52" y="0" type="curve"/>
      <point x="241" y="0" type="line" smooth="yes"/>
      <point x="311" y="0"/>
      <point x="358" y="-1"/>
      <point x="428" y="-5" type="curve"/>
    </contour>
  </outline>
</glyph>
<glyph name="infinity" format="1">
  <advance width="630"/>
  <unicode hex="221E"/>
  <outline>
    <contour>
      <point x="229" y="57"/>
      <point x="273" y="95"/>
      <point x="301" y="160" type="curve"/>
      <point x="326" y="104"/>
      <point x="362" y="57"/>
      <point x="436" y="57" type="curve" smooth="yes"/>
      <point x="522" y="57"/>
      <point x="582" y="150"/>
      <point x="582" y="282" type="curve" smooth="yes"/>
      <point x="582" y="392"/>
      <point x="530" y="466"/>
      <point x="451" y="466" type="curve" smooth="yes"/>
      <point x="402" y="466"/>
      <point x="359" y="430"/>
      <point x="331" y="370" type="curve"/>
      <point x="305" y="423"/>
      <point x="266" y="466"/>
      <point x="194" y="466" type="curve" smooth="yes"/>
      <point x="108" y="466"/>
      <point x="47" y="373"/>
      <point x="47" y="240" type="curve" smooth="yes"/>
      <point x="47" y="131"/>
      <point x="99" y="57"/>
      <point x="178" y="57" type="curve" smooth="yes"/>
    </contour>
    <contour>
      <point x="140" y="159"/>
      <point x="108" y="190"/>
      <point x="98" y="241" type="curve"/>
      <point x="98" y="312"/>
      <point x="127" y="363"/>
      <point x="175" y="363" type="curve" smooth="yes"/>
      <point x="235" y="363"/>
      <point x="255" y="293"/>
      <point x="279" y="221" type="curve"/>
      <point x="258" y="181"/>
      <point x="226" y="159"/>
      <point x="187" y="159" type="curve" smooth="yes"/>
    </contour>
    <contour>
      <point x="398" y="159"/>
      <point x="382" y="234"/>
      <point x="355" y="310" type="curve"/>
      <point x="377" y="344"/>
      <point x="406" y="363"/>
      <point x="443" y="363" type="curve" smooth="yes"/>
      <point x="489" y="363"/>
      <point x="521" y="332"/>
      <point x="531" y="281" type="curve"/>
      <point x="531" y="210"/>
      <point x="502" y="159"/>
      <point x="454" y="159" type="curve" smooth="yes"/>
    </contour>
  </outline>
</glyph>
<glyph name="lozenge" format="1">
  <advance width="498"/>
  <unicode hex="25CA"/>
  <outline>
    <contour>
      <point x="269" y="-8"/>
      <point x="289" y="-5"/>
      <point x="308" y="0" type="curve"/>
      <point x="348" y="88"/>
      <point x="398" y="176"/>
      <point x="459" y="264" type="curve"/>
      <point x="398" y="352"/>
      <point x="348" y="439"/>
      <point x="308" y="527" type="curve"/>
      <point x="289" y="532"/>
      <point x="269" y="535"/>
      <point x="249" y="535" type="curve" smooth="yes"/>
      <point x="229" y="535"/>
      <point x="209" y="532"/>
      <point x="189" y="527" type="curve"/>
      <point x="149" y="439"/>
      <point x="99" y="352"/>
      <point x="38" y="264" type="curve"/>
      <point x="99" y="176"/>
      <point x="149" y="88"/>
      <point x="189" y="0" type="curve"/>
      <point x="209" y="-5"/>
      <point x="229" y="-8"/>
      <point x="249" y="-8" type="curve" smooth="yes"/>
    </contour>
    <contour>
      <point x="141" y="264" type="line"/>
      <point x="249" y="452" type="line"/>
      <point x="357" y="264" type="line"/>
      <point x="249" y="76" type="line"/>
    </contour>
  </outline>
</glyph>
<glyph name="fi" format="1">
  <advance width="526"/>
  <unicode hex="FB01"/>
  <outline>
    <contour>
      <point x="170" y="-79"/>
      <point x="197" y="-33"/>
      <point x="197" y="63" type="curve" smooth="yes"/>
      <point x="197" y="110"/>
      <point x="190" y="182"/>
      <point x="190" y="278" type="curve" smooth="yes"/>
      <point x="190" y="340" type="line"/>
      <point x="356" y="340" type="line"/>
      <point x="357" y="319"/>
      <point x="357" y="295"/>
      <point x="357" y="272" type="curve" smooth="yes"/>
      <point x="357" y="208"/>
      <point x="353" y="144"/>
      <point x="353" y="73" type="curve" smooth="yes"/>
      <point x="353" y="10"/>
      <point x="370" y="-9"/>
      <point x="414" y="-9" type="curve" smooth="yes"/>
      <point x="433" y="-9"/>
      <point x="464" y="0"/>
      <point x="489" y="27" type="curve"/>
      <point x="458" y="61"/>
      <point x="450" y="84"/>
      <point x="450" y="192" type="curve" smooth="yes"/>
      <point x="450" y="294"/>
      <point x="455" y="379"/>
      <point x="462" y="417" type="curve"/>
      <point x="423" y="417"/>
      <point x="388" y="413"/>
      <point x="348" y="397" type="curve"/>
      <point x="192" y="397" type="line"/>
      <point x="196" y="483"/>
      <point x="205" y="514"/>
      <point x="225" y="529" type="curve"/>
      <point x="263" y="528"/>
      <point x="319" y="502"/>
      <point x="378" y="460" type="curve"/>
      <point x="394" y="487"/>
      <point x="408" y="537"/>
      <point x="408" y="561" type="curve"/>
      <point x="368" y="576"/>
      <point x="321" y="585"/>
      <point x="269" y="585" type="curve" smooth="yes"/>
      <point x="176" y="585"/>
      <point x="106" y="514"/>
      <point x="90" y="404" type="curve"/>
      <point x="71" y="391"/>
      <point x="52" y="379"/>
      <point x="29" y="368" type="curve"/>
      <point x="29" y="344"/>
      <point x="39" y="338"/>
      <point x="90" y="337" type="curve"/>
      <point x="106" y="-28"/>
      <point x="100" y="-72"/>
      <point x="47" y="-143" type="curve"/>
      <point x="64" y="-159" type="line"/>
    </contour>
    <contour>
      <point x="460" y="0" type="move" name="ogonek"/>
    </contour>
    <contour>
      <point x="147" y="0" type="move" name="bottom"/>
    </contour>
    <contour>
      <point x="147" y="407" type="move" name="top"/>
    </contour>
  </outline>
</glyph>
<glyph name="five.dnom" format="1">
  <advance width="352"/>
  <outline>
    <contour>
      <point x="243" y="-6"/>
      <point x="287" y="26"/>
      <point x="287" y="85" type="curve" smooth="yes"/>
      <point x="287" y="133"/>
      <point x="246" y="170"/>
      <point x="189" y="170" type="curve" smooth="yes"/>
      <point x="160" y="170"/>
      <point x="133" y="162"/>
      <point x="111" y="147" type="curve"/>
      <point x="116" y="206" type="line"/>
      <point x="202" y="206" type="line" smooth="yes"/>
      <point x="232" y="206"/>
      <point x="248" y="203"/>
      <point x="260" y="197" type="curve"/>
      <point x="271" y="216"/>
      <point x="277" y="248"/>
      <point x="277" y="274" type="curve"/>
      <point x="259" y="270"/>
      <point x="220" y="268"/>
      <point x="176" y="268" type="curve" smooth="yes"/>
      <point x="128" y="268"/>
      <point x="102" y="270"/>
      <point x="88" y="274" type="curve"/>
      <point x="78" y="122" type="line"/>
      <point x="109" y="107" type="line"/>
      <point x="133" y="123"/>
      <point x="158" y="133"/>
      <point x="173" y="133" type="curve"/>
      <point x="203" y="122"/>
      <point x="214" y="107"/>
      <point x="214" y="85" type="curve" smooth="yes"/>
      <point x="214" y="55"/>
      <point x="191" y="37"/>
      <point x="151" y="37" type="curve" smooth="yes"/>
      <point x="117" y="37"/>
      <point x="86" y="49"/>
      <point x="68" y="69" type="curve"/>
      <point x="62" y="52"/>
      <point x="59" y="38"/>
      <point x="59" y="18" type="curve"/>
      <point x="87" y="3"/>
      <point x="123" y="-6"/>
      <point x="160" y="-6" type="curve" smooth="yes"/>
    </contour>
  </outline>
</glyph>
<glyph name="nine.dnom" format="1">
  <advance width="350"/>
  <outline>
    <contour>
      <point x="245" y="-6"/>
      <point x="301" y="52"/>
      <point x="301" y="150" type="curve" smooth="yes"/>
      <point x="301" y="227"/>
      <point x="250" y="277"/>
      <point x="172" y="277" type="curve" smooth="yes"/>
      <point x="101" y="277"/>
      <point x="51" y="235"/>
      <point x="51" y="175" type="curve" smooth="yes"/>
      <point x="51" y="121"/>
      <point x="91" y="85"/>
      <point x="150" y="85" type="curve" smooth="yes"/>
      <point x="177" y="85"/>
      <point x="202" y="93"/>
      <point x="225" y="110" type="curve"/>
      <point x="220" y="61"/>
      <point x="193" y="36"/>
      <point x="147" y="36" type="curve" smooth="yes"/>
      <point x="112" y="36"/>
      <point x="80" y="49"/>
      <point x="64" y="69" type="curve"/>
      <point x="57" y="48"/>
      <point x="53" y="34"/>
      <point x="53" y="18" type="curve"/>
      <point x="81" y="2"/>
      <point x="113" y="-6"/>
      <point x="147" y="-6" type="curve" smooth="yes"/>
    </contour>
    <contour>
      <point x="146" y="122"/>
      <point x="126" y="142"/>
      <point x="126" y="174" type="curve" smooth="yes"/>
      <point x="126" y="205"/>
      <point x="144" y="225"/>
      <point x="172" y="225" type="curve" smooth="yes"/>
      <point x="204" y="225"/>
      <point x="223" y="197"/>
      <point x="226" y="147" type="curve"/>
      <point x="212" y="135"/>
      <point x="196" y="127"/>
      <point x="179" y="122" type="curve"/>
    </contour>
  </outline>
</glyph>
